<svg id="Digital_content" height="512" viewBox="0 0 64 64" width="512" xmlns="http://www.w3.org/2000/svg" data-name="Digital content"><path d="m3 3h52v54h-52z" fill="#91d1f5"/><path d="m3 3h52v8h-52z" fill="none"/><path d="m3 3h52v8h-52z" fill="#006ca9"/><path d="m9 7h52v54h-52z" fill="#a7daf7"/><path d="m9 8h52v8h-52z" fill="none"/><path d="m9 7h52v9h-52z" fill="#2281c7"/><path d="m3 3h52v54h-52z" fill="#91d1f5"/><path d="m3 3h52v8h-52z" fill="none"/><path d="m3 3h52v8h-52z" fill="#006ca9"/><path d="m8 16h20v14h-20z" fill="#46f8ff"/><circle cx="14" cy="21" fill="#ffc740" r="2"/><path d="m13 30 7-8 7 8z" fill="#70a61b"/><path d="m45 50v-33a3 3 0 0 1 3-3 3 3 0 0 1 3 3v33l-3 5z" fill="#acabb1"/><path d="m46 18h4v6h-4z" fill="#fff" transform="matrix(0 1 -1 0 69 -27)"/><path d="m36 35h27v3h-27z" fill="#ec455a" transform="matrix(0 1 -1 0 86 -13)"/><path d="m33 35h27v3h-27z" fill="#ffc740" transform="matrix(0 1 -1 0 83 -10)"/><path d="m10 6h2v2h-2z" fill="#ffc740"/><path d="m6 6h2v2h-2z" fill="#ec455a"/><path d="m14 6h2v2h-2z" fill="#8cc63e"/><path d="m7 39h8v2h-8z" fill="#1a6fb0"/><path d="m18 39h11v2h-11z" fill="#1a6fb0"/><path d="m25 34h4v2h-4z" fill="#1a6fb0"/><path d="m7 34h15v2h-15z" fill="#1a6fb0"/><path d="m7 44h22v2h-22z" fill="#1a6fb0"/><path d="m7 49h22v2h-22z" fill="#1a6fb0"/><path d="m33 39h8v2h-8z"/><g fill="#1a6fb0"><path d="m33 49h8v2h-8z"/><path d="m33 19h5.272v2h-5.272z"/><path d="m41 19h4v2h-4z"/><path d="m33 24h12v2h-12z"/><path d="m33 29h12v2h-12z"/><path d="m33 34h12v2h-12z"/><path d="m33 39h12v2h-12z"/><path d="m33 44h12v2h-12z"/></g></svg>