<svg id="filled_outline" height="512" viewBox="0 0 512 512" width="512" xmlns="http://www.w3.org/2000/svg" data-name="filled outline"><path d="m88 376h232l16-16v-96l-24-16h-248l-40 48v168l24 24h40z" fill="#548aff"/><path d="m176 376-16-16v-96l16-16h136l24 16v96l-16 16z" fill="#91c0ff"/><path d="m136 280h24v56h-24z" fill="#4976f2"/><path d="m256 280h40v64h-40z" fill="#639aff"/><path d="m120 376v32l-32 16v-48z" fill="#486be0"/><path d="m336 280h56v64h-56z" fill="#639aff"/><path d="m392 288 24 8v32l-24 8z" fill="#4f7ff7"/><path d="m56 488v-80l32-32v112z" fill="#4976f2"/><path d="m24 184h400v32h-400z" fill="#ffd873"/><path d="m400 184h-360a159.99416 159.99416 0 0 1 160-160h40a159.99416 159.99416 0 0 1 160 160z" fill="#ffc431"/><path d="m424 488v-128h24l40 128z" fill="#d1e4ff"/><path d="m184 408h152v48h-152z" fill="#8098ab"/><path d="m184 456h-24v-48h24l24 16v16z" fill="#ffa100"/><path d="m424 440h-56l-16 16h-16v-48h88z" fill="#ffa100"/><path d="m192 272h32v16h-32z"/><path d="m192 304h32v16h-32z"/><path d="m192 336h32v16h-32z"/><path d="m296 272h-40a8.00039 8.00039 0 0 0 -8 8v64a8.00039 8.00039 0 0 0 8 8h40a8.00039 8.00039 0 0 0 8-8v-64a8.00039 8.00039 0 0 0 -8-8zm-8 64h-24v-16h24zm0-32h-24v-16h24z"/><path d="m424 296a8.00026 8.00026 0 0 0 -5.46973-7.58984l-18.53027-6.17676v-2.2334a8.00039 8.00039 0 0 0 -8-8h-48v-8a7.99943 7.99943 0 0 0 -3.5625-6.65625l-24-16a8.00221 8.00221 0 0 0 -4.4375-1.34375h-248a7.99862 7.99862 0 0 0 -6.14551 2.87891l-40 48a7.99881 7.99881 0 0 0 -1.85449 5.12109v168a8.00235 8.00235 0 0 0 2.34277 5.65723l24 24a8.00235 8.00235 0 0 0 5.65723 2.34277h40a8.00039 8.00039 0 0 0 8-8v-59.05566l27.57812-13.78907a8.00022 8.00022 0 0 0 4.42188-7.15527v-24h192a8.00235 8.00235 0 0 0 5.65723-2.34277l16-16a8.00235 8.00235 0 0 0 2.34277-5.65723v-8h48a8.00039 8.00039 0 0 0 8-8v-2.2334l18.53027-6.17676a8.00026 8.00026 0 0 0 5.46973-7.58984v-8h72v-16h-72zm-344 184h-16v-68.68652l16-15.99948zm32-76.94434-16 8v-27.05566h16zm24-131.05566a8.00039 8.00039 0 0 0 -8 8v56a8.00039 8.00039 0 0 0 8 8h16v16a8.00235 8.00235 0 0 0 2.34277 5.65723l2.34278 2.34277h-68.68555a7.975 7.975 0 0 0 -5.65674 2.34326l-.00049-.00049-32 32a8.00235 8.00235 0 0 0 -2.34277 5.65723v68.68652l-16-16v-161.79l35.74707-42.89652h88.93848l-2.34278 2.34277a8.00235 8.00235 0 0 0 -2.34277 5.65723v8zm16 16v40h-8v-40zm176-8v76.68652l-11.31348 11.31348h-137.37231l-11.31421-11.31348v-89.373l11.31421-11.31352h130.26391l18.42188 12.28125zm56 56h-40v-48h40zm24-13.76562-8 2.66625v-25.80126l8 2.66625z"/><path d="m24 224h400a8.00039 8.00039 0 0 0 8-8v-32a8.00039 8.00039 0 0 0 -8-8h-16.19482c-4.19068-88.93506-77.85157-160-167.80518-160h-40c-89.95361 0-163.6145 71.06494-167.80518 160h-8.19482a8.00039 8.00039 0 0 0 -8 8v32a8.00039 8.00039 0 0 0 8 8zm176-192h40c81.12988 0 147.61548 63.89087 151.78979 144h-48.07861a112.14423 112.14423 0 0 0 -111.71118-104h-24v16h24a95.9379 95.9379 0 0 1 77.92651 40h-117.92651a7.99862 7.99862 0 0 0 -6.14551 2.87891l-37.60083 45.12109h-100.04345c4.17431-80.10913 70.65991-144 151.78979-144zm127.66382 144h-158.58374l26.667-32h123.5122a95.26117 95.26117 0 0 1 8.40454 32zm-295.66382 16h384v16h-384z"/><path d="m424 496h64a8.00032 8.00032 0 0 0 7.63574-10.38574l-40-128a8.00052 8.00052 0 0 0 -7.63574-5.61426h-24a8.00039 8.00039 0 0 0 -8 8v40h-256a8.00039 8.00039 0 0 0 -8 8v48a8.00039 8.00039 0 0 0 8 8h192a8.00235 8.00235 0 0 0 5.65723-2.34277l13.65625-13.65723h44.68652v40a8.00039 8.00039 0 0 0 8 8zm8-128h10.11816l35 112h-45.11816zm-232 67.71875-18.42188 12.28125h-13.57812v-32h13.57812l18.42188 12.28125zm128 12.28125h-24v-16h-16v16h-8v-16h-16v16h-8v-16h-16v16h-29.57812l2.01562-1.34375a7.99943 7.99943 0 0 0 3.5625-6.65625v-16a7.99943 7.99943 0 0 0 -3.5625-6.65625l-2.01562-1.34375h117.57812zm40-16a8.00235 8.00235 0 0 0 -5.65723 2.34277l-13.65625 13.65723h-4.68652v-32h72v16z"/></svg>