<svg id="Layer_1" data-name="Layer 1" xmlns="http://www.w3.org/2000/svg" xmlns:xlink="http://www.w3.org/1999/xlink" viewBox="0 0 1034.4 692.82"><defs><style>.cls-1{fill:#919084;}.cls-129,.cls-15,.cls-2,.cls-30{fill:#fff;}.cls-3{fill:#686861;}.cls-4{fill:#bd0000;}.cls-5{fill:#e25050;}.cls-6{fill:#820000;}.cls-7{fill:url(#linear-gradient);}.cls-8{fill:url(#linear-gradient-2);}.cls-9{fill:url(#linear-gradient-3);}.cls-10{fill:url(#linear-gradient-4);}.cls-11{fill:url(#linear-gradient-5);}.cls-12{fill:url(#linear-gradient-6);}.cls-13{fill:url(#linear-gradient-7);}.cls-14{fill:url(#linear-gradient-8);}.cls-15,.cls-33{opacity:0.6;}.cls-16,.cls-65{opacity:0.5;}.cls-17{fill:#eac4f9;}.cls-18{fill:url(#linear-gradient-9);}.cls-19{fill:url(#linear-gradient-10);}.cls-20{fill:url(#linear-gradient-11);}.cls-21{fill:url(#linear-gradient-12);}.cls-22{fill:url(#linear-gradient-13);}.cls-23{fill:url(#linear-gradient-14);}.cls-24{fill:url(#linear-gradient-15);}.cls-25{fill:url(#linear-gradient-16);}.cls-26{opacity:0.76;}.cls-27{fill:url(#linear-gradient-17);}.cls-28{fill:url(#linear-gradient-18);}.cls-29{fill:url(#linear-gradient-19);}.cls-30{opacity:0.78;}.cls-31{fill:url(#linear-gradient-20);}.cls-32{fill:url(#linear-gradient-21);}.cls-34{fill:url(#linear-gradient-22);}.cls-35{fill:url(#linear-gradient-23);}.cls-36{fill:url(#linear-gradient-24);}.cls-37{fill:url(#linear-gradient-25);}.cls-38{fill:url(#linear-gradient-26);}.cls-39{fill:url(#linear-gradient-27);}.cls-40{fill:url(#linear-gradient-28);}.cls-41{fill:url(#linear-gradient-29);}.cls-42{fill:url(#linear-gradient-30);}.cls-43{fill:url(#linear-gradient-31);}.cls-44{fill:url(#linear-gradient-32);}.cls-45{fill:url(#linear-gradient-33);}.cls-46{fill:url(#linear-gradient-34);}.cls-47{fill:url(#linear-gradient-35);}.cls-48{fill:url(#linear-gradient-36);}.cls-49{fill:url(#linear-gradient-37);}.cls-50{fill:url(#linear-gradient-38);}.cls-51{fill:url(#linear-gradient-39);}.cls-52{fill:url(#linear-gradient-40);}.cls-53{fill:url(#linear-gradient-41);}.cls-54{fill:url(#linear-gradient-42);}.cls-55{fill:url(#linear-gradient-43);}.cls-56{fill:url(#linear-gradient-44);}.cls-57{fill:url(#linear-gradient-45);}.cls-58{fill:url(#linear-gradient-46);}.cls-59{fill:url(#linear-gradient-47);}.cls-60{fill:url(#linear-gradient-48);}.cls-61{fill:url(#linear-gradient-49);}.cls-62{fill:url(#linear-gradient-50);}.cls-63{fill:url(#linear-gradient-51);}.cls-64{fill:url(#linear-gradient-52);}.cls-65{fill:url(#linear-gradient-53);}.cls-66{fill:url(#linear-gradient-54);}.cls-67{fill:url(#linear-gradient-55);}.cls-68{fill:url(#linear-gradient-56);}.cls-69{fill:url(#linear-gradient-57);}.cls-70{fill:url(#linear-gradient-58);}.cls-71{fill:url(#linear-gradient-59);}.cls-72{fill:url(#linear-gradient-60);}.cls-73{fill:url(#linear-gradient-61);}.cls-74{fill:url(#linear-gradient-62);}.cls-75{fill:url(#linear-gradient-63);}.cls-76{fill:url(#linear-gradient-64);}.cls-77{fill:url(#linear-gradient-65);}.cls-78{fill:url(#linear-gradient-66);}.cls-79{fill:url(#linear-gradient-67);}.cls-80{fill:url(#linear-gradient-68);}.cls-81{fill:url(#linear-gradient-69);}.cls-82{fill:url(#linear-gradient-70);}.cls-83{fill:url(#linear-gradient-71);}.cls-84{fill:url(#linear-gradient-72);}.cls-85{fill:url(#linear-gradient-73);}.cls-86{fill:url(#linear-gradient-74);}.cls-87{fill:url(#linear-gradient-75);}.cls-88{fill:url(#linear-gradient-76);}.cls-89{fill:url(#linear-gradient-77);}.cls-90{fill:url(#linear-gradient-78);}.cls-91{fill:url(#linear-gradient-79);}.cls-92{fill:url(#linear-gradient-80);}.cls-93{fill:url(#linear-gradient-81);}.cls-94{fill:url(#linear-gradient-82);}.cls-95{fill:url(#linear-gradient-83);}.cls-96{fill:url(#linear-gradient-84);}.cls-97{fill:url(#linear-gradient-85);}.cls-98{fill:url(#linear-gradient-86);}.cls-99{fill:url(#linear-gradient-87);}.cls-100{fill:url(#linear-gradient-88);}.cls-101{fill:url(#linear-gradient-89);}.cls-102{fill:url(#linear-gradient-90);}.cls-103{fill:url(#linear-gradient-91);}.cls-104{fill:url(#linear-gradient-92);}.cls-105{fill:url(#linear-gradient-93);}.cls-106{fill:url(#linear-gradient-94);}.cls-107{fill:url(#linear-gradient-95);}.cls-108{fill:#e992ec;}.cls-109{fill:url(#linear-gradient-96);}.cls-110{fill:url(#linear-gradient-97);}.cls-111{fill:url(#linear-gradient-98);}.cls-112{fill:url(#linear-gradient-99);}.cls-113{fill:url(#linear-gradient-100);}.cls-114{fill:url(#linear-gradient-101);}.cls-115{fill:url(#linear-gradient-102);}.cls-116{fill:url(#linear-gradient-103);}.cls-117{fill:url(#linear-gradient-104);}.cls-118{fill:url(#linear-gradient-105);}.cls-119{fill:url(#linear-gradient-106);}.cls-120{fill:url(#linear-gradient-107);}.cls-121{fill:url(#linear-gradient-108);}.cls-122{fill:url(#linear-gradient-109);}.cls-123{fill:url(#linear-gradient-110);}.cls-124{fill:url(#linear-gradient-111);}.cls-125{fill:url(#linear-gradient-112);}.cls-126{fill:url(#linear-gradient-113);}.cls-127{fill:url(#linear-gradient-114);}.cls-128{fill:url(#linear-gradient-115);}.cls-129{opacity:0.53;}.cls-130{fill:url(#linear-gradient-116);}</style><linearGradient id="linear-gradient" x1="8945.52" y1="542.24" x2="8680.7" y2="713.91" gradientTransform="matrix(-1, 0, 0, 1, 9352.31, 0)" gradientUnits="userSpaceOnUse"><stop offset="0" stop-color="#53d8ff"/><stop offset="1" stop-color="#3840f7"/></linearGradient><linearGradient id="linear-gradient-2" x1="471.63" y1="567.9" x2="318.75" y2="569.98" gradientUnits="userSpaceOnUse"><stop offset="0" stop-color="#fdf53f"/><stop offset="1" stop-color="#d93c65"/></linearGradient><linearGradient id="linear-gradient-3" x1="114.97" y1="527.69" x2="517.37" y2="636.04" gradientUnits="userSpaceOnUse"><stop offset="0" stop-color="#cb236d"/><stop offset="1" stop-color="#4c246d"/></linearGradient><linearGradient id="linear-gradient-4" x1="264.84" y1="727.9" x2="249.11" y2="608.97" gradientTransform="matrix(1, 0, 0, 1, 0, 0)" xlink:href="#linear-gradient"/><linearGradient id="linear-gradient-5" x1="314.72" y1="721.71" x2="298.95" y2="602.48" gradientTransform="matrix(1, 0, 0, 1, 0, 0)" xlink:href="#linear-gradient"/><linearGradient id="linear-gradient-6" x1="8449.03" y1="670.26" x2="8184.21" y2="841.93" xlink:href="#linear-gradient"/><linearGradient id="linear-gradient-7" x1="1072.52" y1="558.28" x2="840.52" y2="810.28" xlink:href="#linear-gradient-2"/><linearGradient id="linear-gradient-8" x1="959.04" y1="553.19" x2="956.04" y2="674.68" gradientTransform="translate(1914.62 1246.53) rotate(-180)" xlink:href="#linear-gradient"/><linearGradient id="linear-gradient-9" x1="866.1" y1="217.15" x2="1013.39" y2="217.15" gradientUnits="userSpaceOnUse"><stop offset="0" stop-color="#b37cff"/><stop offset="1" stop-color="#f895e7"/></linearGradient><linearGradient id="linear-gradient-10" x1="838.06" y1="42.73" x2="856.68" y2="180.81" xlink:href="#linear-gradient-9"/><linearGradient id="linear-gradient-11" x1="1121.21" y1="205.7" x2="536.24" y2="973.66" xlink:href="#linear-gradient-2"/><linearGradient id="linear-gradient-12" x1="1069.41" y1="449.24" x2="608.41" y2="483.24" gradientTransform="matrix(1, 0, 0, 1, 0, 0)" xlink:href="#linear-gradient"/><linearGradient id="linear-gradient-13" x1="950.33" y1="455.53" x2="565.33" y2="474.53" gradientTransform="matrix(1, 0, 0, 1, 0, 0)" xlink:href="#linear-gradient"/><linearGradient id="linear-gradient-14" x1="926.6" y1="420.79" x2="440.62" y2="554.28" xlink:href="#linear-gradient-2"/><linearGradient id="linear-gradient-15" x1="822.82" y1="256.26" x2="336.85" y2="389.75" xlink:href="#linear-gradient-2"/><linearGradient id="linear-gradient-16" x1="292.58" y1="47.14" x2="411.58" y2="275.14" gradientTransform="matrix(1, 0, 0, 1, 0, 0)" xlink:href="#linear-gradient"/><linearGradient id="linear-gradient-17" x1="-204.84" y1="2909.34" x2="-395.84" y2="2754.33" gradientTransform="matrix(0.4, -0.92, 0.92, 0.4, -2258.74, -1116.22)" xlink:href="#linear-gradient"/><linearGradient id="linear-gradient-18" x1="831.87" y1="155.68" x2="252.9" y2="916.14" gradientUnits="userSpaceOnUse"><stop offset="0" stop-color="#2b3582"/><stop offset="1" stop-color="#150e42"/></linearGradient><linearGradient id="linear-gradient-19" x1="325.24" y1="850.67" x2="751.22" y2="222.21" gradientUnits="userSpaceOnUse"><stop offset="0" stop-color="#a737d5"/><stop offset="1" stop-color="#ef497a"/></linearGradient><linearGradient id="linear-gradient-20" x1="475.71" y1="140.67" x2="297.71" y2="405.67" xlink:href="#linear-gradient-2"/><linearGradient id="linear-gradient-21" x1="581.7" y1="223.03" x2="403.7" y2="488.03" xlink:href="#linear-gradient-2"/><linearGradient id="linear-gradient-22" x1="766.11" y1="245.85" x2="574.11" y2="498.85" xlink:href="#linear-gradient-19"/><linearGradient id="linear-gradient-23" x1="743.66" y1="271.26" x2="700.53" y2="350.81" xlink:href="#linear-gradient-2"/><linearGradient id="linear-gradient-24" x1="707.57" y1="213.72" x2="512.56" y2="449.98" xlink:href="#linear-gradient-19"/><linearGradient id="linear-gradient-25" x1="718.26" y1="223.72" x2="522.86" y2="460.45" xlink:href="#linear-gradient-19"/><linearGradient id="linear-gradient-26" x1="497.46" y1="386.77" x2="349.46" y2="595.77" gradientTransform="matrix(1, 0, 0, 1, 0, 0)" xlink:href="#linear-gradient"/><linearGradient id="linear-gradient-27" x1="654.75" y1="387.73" x2="530.75" y2="535.73" xlink:href="#linear-gradient-2"/><linearGradient id="linear-gradient-28" x1="543.01" y1="432.29" x2="431.01" y2="652.29" xlink:href="#linear-gradient-19"/><linearGradient id="linear-gradient-29" x1="507.5" y1="550.79" x2="428.5" y2="692.79" xlink:href="#linear-gradient-2"/><linearGradient id="linear-gradient-30" x1="554.59" y1="550.52" x2="499.59" y2="670.52" xlink:href="#linear-gradient-2"/><linearGradient id="linear-gradient-31" x1="668.62" y1="361.17" x2="535.62" y2="588.17" xlink:href="#linear-gradient-19"/><linearGradient id="linear-gradient-32" x1="692.97" y1="375.44" x2="559.97" y2="602.44" xlink:href="#linear-gradient-19"/><linearGradient id="linear-gradient-33" x1="713.44" y1="431.4" x2="538.44" y2="675.4" xlink:href="#linear-gradient-19"/><linearGradient id="linear-gradient-34" x1="741.67" y1="403.97" x2="608.67" y2="630.97" xlink:href="#linear-gradient-19"/><linearGradient id="linear-gradient-35" x1="662.66" y1="17.78" x2="494.66" y2="238.78" xlink:href="#linear-gradient-18"/><linearGradient id="linear-gradient-36" x1="681.09" y1="31.79" x2="513.09" y2="252.79" xlink:href="#linear-gradient-18"/><linearGradient id="linear-gradient-37" x1="659.92" y1="45.31" x2="543.92" y2="258.31" gradientTransform="matrix(1, 0, 0, 1, 0, 0)" xlink:href="#linear-gradient"/><linearGradient id="linear-gradient-38" x1="275.89" y1="454.4" x2="304.82" y2="454.4" gradientTransform="matrix(1, 0, 0, 1, 0, 0)" xlink:href="#linear-gradient"/><linearGradient id="linear-gradient-39" x1="275.89" y1="448.73" x2="304.01" y2="448.73" xlink:href="#linear-gradient-18"/><linearGradient id="linear-gradient-40" x1="278.57" y1="440.82" x2="286.71" y2="440.82" gradientUnits="userSpaceOnUse"><stop offset="0" stop-color="#f9b776"/><stop offset="1" stop-color="#f47960"/></linearGradient><linearGradient id="linear-gradient-41" x1="218.22" y1="453.78" x2="229.31" y2="453.78" gradientTransform="matrix(1, 0, 0, 1, 0, 0)" xlink:href="#linear-gradient"/><linearGradient id="linear-gradient-42" x1="218.3" y1="445.24" x2="234.57" y2="445.24" xlink:href="#linear-gradient-18"/><linearGradient id="linear-gradient-43" x1="226.76" y1="434.02" x2="236.5" y2="434.02" xlink:href="#linear-gradient-40"/><linearGradient id="linear-gradient-44" x1="204.2" y1="462.5" x2="332.14" y2="317.76" xlink:href="#linear-gradient-18"/><linearGradient id="linear-gradient-45" x1="349.23" y1="230.72" x2="125.97" y2="424.9" xlink:href="#linear-gradient-2"/><linearGradient id="linear-gradient-46" x1="259.58" y1="397.96" x2="264.24" y2="388.62" gradientTransform="matrix(1, 0, 0, 1, 0, 0)" xlink:href="#linear-gradient"/><linearGradient id="linear-gradient-47" x1="271.38" y1="292.06" x2="236.71" y2="322.76" xlink:href="#linear-gradient-40"/><linearGradient id="linear-gradient-48" x1="330.62" y1="210.14" x2="108.36" y2="403.45" xlink:href="#linear-gradient-2"/><linearGradient id="linear-gradient-49" x1="365.56" y1="250.31" x2="143.3" y2="443.62" xlink:href="#linear-gradient-2"/><linearGradient id="linear-gradient-50" x1="336.37" y1="294.97" x2="363.67" y2="294.97" xlink:href="#linear-gradient-40"/><linearGradient id="linear-gradient-51" x1="309.83" y1="222" x2="309.53" y2="272.99" xlink:href="#linear-gradient-40"/><linearGradient id="linear-gradient-52" x1="233.94" y1="314.97" x2="376.92" y2="314.97" xlink:href="#linear-gradient-18"/><linearGradient id="linear-gradient-53" x1="293.45" y1="189.63" x2="424.69" y2="189.63" xlink:href="#linear-gradient-9"/><linearGradient id="linear-gradient-54" x1="361.65" y1="251.57" x2="507.68" y2="251.57" xlink:href="#linear-gradient-18"/><linearGradient id="linear-gradient-55" x1="-1.92" y1="1908.14" x2="-27.02" y2="1941.34" gradientTransform="translate(55.79 -1675.14) rotate(-8.21)" xlink:href="#linear-gradient-40"/><linearGradient id="linear-gradient-56" x1="-21.09" y1="1916.15" x2="8.89" y2="1916.15" gradientTransform="translate(55.79 -1675.14) rotate(-8.21)" xlink:href="#linear-gradient-18"/><linearGradient id="linear-gradient-57" x1="-38.68" y1="1934.43" x2="-18.55" y2="1913.78" gradientTransform="translate(55.79 -1675.14) rotate(-8.21)" xlink:href="#linear-gradient-40"/><linearGradient id="linear-gradient-58" x1="285.07" y1="307.52" x2="250.4" y2="338.22" xlink:href="#linear-gradient-40"/><linearGradient id="linear-gradient-59" x1="360.77" y1="291.76" x2="370.55" y2="291.76" xlink:href="#linear-gradient-40"/><linearGradient id="linear-gradient-60" x1="384.29" y1="522.6" x2="7.02" y2="952.18" xlink:href="#linear-gradient-18"/><linearGradient id="linear-gradient-61" x1="348.58" y1="491.23" x2="-28.7" y2="920.81" xlink:href="#linear-gradient-18"/><linearGradient id="linear-gradient-62" x1="95.85" y1="600.23" x2="219.91" y2="600.23" gradientUnits="userSpaceOnUse"><stop offset="0" stop-color="#9cfffb"/><stop offset="1" stop-color="#9bfffa"/></linearGradient><linearGradient id="linear-gradient-63" x1="169.6" y1="600.23" x2="293.66" y2="600.23" xlink:href="#linear-gradient-62"/><linearGradient id="linear-gradient-64" x1="207.87" y1="459.09" x2="323.81" y2="459.09" xlink:href="#linear-gradient-62"/><linearGradient id="linear-gradient-65" x1="196.99" y1="502.75" x2="275.62" y2="502.75" xlink:href="#linear-gradient-62"/><linearGradient id="linear-gradient-66" x1="101.03" y1="493.93" x2="175" y2="493.93" xlink:href="#linear-gradient-62"/><linearGradient id="linear-gradient-67" x1="79.06" y1="547.04" x2="153.03" y2="547.04" xlink:href="#linear-gradient-62"/><linearGradient id="linear-gradient-68" x1="129.28" y1="662.09" x2="207.92" y2="662.09" xlink:href="#linear-gradient-62"/><linearGradient id="linear-gradient-69" x1="107.01" y1="715.2" x2="185.64" y2="715.2" xlink:href="#linear-gradient-62"/><linearGradient id="linear-gradient-70" x1="606.84" y1="-78.29" x2="581.95" y2="-27" gradientTransform="translate(-123.3 540.13) rotate(9.25)" xlink:href="#linear-gradient-18"/><linearGradient id="linear-gradient-71" x1="451.54" y1="638.97" x2="459.46" y2="878.59" xlink:href="#linear-gradient-2"/><linearGradient id="linear-gradient-72" x1="405.7" y1="661.3" x2="458.18" y2="788.08" gradientUnits="userSpaceOnUse"><stop offset="0" stop-color="#c4421b"/><stop offset="1" stop-color="#5c0e16"/></linearGradient><linearGradient id="linear-gradient-73" x1="-3175.81" y1="661.03" x2="-3123.33" y2="787.81" gradientTransform="matrix(-1, 0, 0, 1, -2677.07, 0)" xlink:href="#linear-gradient-72"/><linearGradient id="linear-gradient-74" x1="376.72" y1="615.97" x2="374.01" y2="725.62" gradientTransform="matrix(1, 0, 0, 1, 0, 0)" xlink:href="#linear-gradient"/><linearGradient id="linear-gradient-75" x1="497.2" y1="729.26" x2="525.88" y2="729.26" gradientTransform="translate(-7.77 11.08) rotate(0.44)" gradientUnits="userSpaceOnUse"><stop offset="0" stop-color="#2c759e"/><stop offset="1" stop-color="#051042"/></linearGradient><linearGradient id="linear-gradient-76" x1="523.19" y1="714.27" x2="498.01" y2="713.97" gradientTransform="translate(-1.68 26.48) rotate(0.44)" gradientUnits="userSpaceOnUse"><stop offset="0" stop-color="#53eac9"/><stop offset="1" stop-color="#45aed8"/></linearGradient><linearGradient id="linear-gradient-77" x1="502.75" y1="692.46" x2="472.47" y2="774.46" xlink:href="#linear-gradient-72"/><linearGradient id="linear-gradient-78" x1="523.25" y1="713.19" x2="498.07" y2="712.89" xlink:href="#linear-gradient-76"/><linearGradient id="linear-gradient-79" x1="523.15" y1="713.02" x2="498.08" y2="712.72" xlink:href="#linear-gradient-76"/><linearGradient id="linear-gradient-80" x1="562.15" y1="529.81" x2="536.8" y2="529.5" gradientTransform="matrix(1, 0.06, -0.06, 1, -15.25, 183.96)" xlink:href="#linear-gradient-76"/><linearGradient id="linear-gradient-81" x1="561.91" y1="529.64" x2="536.97" y2="529.34" gradientTransform="matrix(1, 0.06, -0.06, 1, -15.25, 183.96)" xlink:href="#linear-gradient-76"/><linearGradient id="linear-gradient-82" x1="-3798.29" y1="704.62" x2="-3769.6" y2="704.62" gradientTransform="matrix(-1, -0.02, -0.02, 1, -3369.23, -36.42)" xlink:href="#linear-gradient-75"/><linearGradient id="linear-gradient-83" x1="-7749.7" y1="665.09" x2="-7774.8" y2="664.79" gradientTransform="matrix(-1, -0.02, -0.02, 1, -7352.85, -76.23)" xlink:href="#linear-gradient-76"/><linearGradient id="linear-gradient-84" x1="442.09" y1="667.75" x2="411.8" y2="749.79" xlink:href="#linear-gradient-72"/><linearGradient id="linear-gradient-85" x1="-7749.71" y1="664.06" x2="-7774.8" y2="663.76" gradientTransform="matrix(-1, -0.02, -0.02, 1, -7352.85, -76.23)" xlink:href="#linear-gradient-76"/><linearGradient id="linear-gradient-86" x1="-7749.66" y1="663.89" x2="-7774.81" y2="663.59" gradientTransform="matrix(-1, -0.02, -0.02, 1, -7352.85, -76.23)" xlink:href="#linear-gradient-76"/><linearGradient id="linear-gradient-87" x1="-7703.04" y1="883.25" x2="-7728.3" y2="882.95" gradientTransform="matrix(-1, 0.03, 0.03, 1, -7343.45, 82.53)" xlink:href="#linear-gradient-76"/><linearGradient id="linear-gradient-88" x1="-7703.18" y1="883.08" x2="-7728.19" y2="882.78" gradientTransform="matrix(-1, 0.03, 0.03, 1, -7343.45, 82.53)" xlink:href="#linear-gradient-76"/><linearGradient id="linear-gradient-89" x1="515.58" y1="690.88" x2="436.88" y2="750" gradientUnits="userSpaceOnUse"><stop offset="0" stop-color="#7c27dd"/><stop offset="1" stop-color="#2b41d9"/></linearGradient><linearGradient id="linear-gradient-90" x1="444.41" y1="743.9" x2="423.78" y2="691.3" xlink:href="#linear-gradient-89"/><linearGradient id="linear-gradient-91" x1="451.77" y1="671.77" x2="451.07" y2="611.01" xlink:href="#linear-gradient-72"/><linearGradient id="linear-gradient-92" x1="735.95" y1="315.61" x2="738.13" y2="262.74" gradientTransform="translate(-225.89 208.2) rotate(9.25)" xlink:href="#linear-gradient-72"/><linearGradient id="linear-gradient-93" x1="607.02" y1="-85.51" x2="579.02" y2="-27.79" gradientTransform="translate(-123.3 540.13) rotate(9.25)" xlink:href="#linear-gradient-18"/><linearGradient id="linear-gradient-94" x1="57.05" y1="796.9" x2="60.46" y2="714.04" gradientTransform="translate(280.24 -137.29) rotate(-7.64)" xlink:href="#linear-gradient-72"/><linearGradient id="linear-gradient-95" x1="452.01" y1="669.23" x2="450.24" y2="753.64" gradientTransform="matrix(1, 0, 0, 1, 0, 0)" xlink:href="#linear-gradient"/><linearGradient id="linear-gradient-96" x1="4389.81" y1="-1532.65" x2="4309.2" y2="-1581.51" gradientTransform="matrix(0.91, 0.41, -0.54, 0.76, -4205.43, -281.83)" xlink:href="#linear-gradient"/><linearGradient id="linear-gradient-97" x1="4345.07" y1="-1550.71" x2="4252.82" y2="-1648.26" gradientTransform="matrix(0.91, 0.41, -0.54, 0.76, -4129.84, -219.9)" xlink:href="#linear-gradient"/><linearGradient id="linear-gradient-98" x1="4383.93" y1="-1533.47" x2="4308.62" y2="-1579.11" gradientTransform="matrix(0.91, 0.41, -0.54, 0.76, -4205.43, -281.83)" xlink:href="#linear-gradient"/><linearGradient id="linear-gradient-99" x1="-6997.8" y1="-1332.76" x2="-6963.39" y2="-1342.73" gradientTransform="matrix(-0.91, -0.41, -0.41, 0.91, -6334.06, -1333.26)" xlink:href="#linear-gradient"/><linearGradient id="linear-gradient-100" x1="706.87" y1="423.84" x2="726.54" y2="473.17" xlink:href="#linear-gradient-18"/><linearGradient id="linear-gradient-101" x1="666.3" y1="452.34" x2="702.63" y2="535.01" xlink:href="#linear-gradient-72"/><linearGradient id="linear-gradient-102" x1="778.77" y1="739.68" x2="795.44" y2="739.68" xlink:href="#linear-gradient-19"/><linearGradient id="linear-gradient-103" x1="708.3" y1="805.44" x2="732.3" y2="524.95" xlink:href="#linear-gradient-72"/><linearGradient id="linear-gradient-104" x1="701.29" y1="736.63" x2="728.27" y2="736.63" xlink:href="#linear-gradient-19"/><linearGradient id="linear-gradient-105" x1="756.58" y1="809.61" x2="780.58" y2="529.05" xlink:href="#linear-gradient-72"/><linearGradient id="linear-gradient-106" x1="708.89" y1="522.59" x2="720.89" y2="633.92" xlink:href="#linear-gradient-3"/><linearGradient id="linear-gradient-107" x1="774.99" y1="528.05" x2="714.99" y2="624.05" xlink:href="#linear-gradient-3"/><linearGradient id="linear-gradient-108" x1="705.67" y1="528.96" x2="710.18" y2="495.98" xlink:href="#linear-gradient-72"/><linearGradient id="linear-gradient-109" x1="724.25" y1="545.04" x2="754.2" y2="545.04" xlink:href="#linear-gradient-72"/><linearGradient id="linear-gradient-110" x1="694.29" y1="486.44" x2="733.62" y2="416.44" xlink:href="#linear-gradient-72"/><linearGradient id="linear-gradient-111" x1="702.75" y1="425.48" x2="722.42" y2="474.82" xlink:href="#linear-gradient-18"/><linearGradient id="linear-gradient-112" x1="702.66" y1="491.15" x2="742" y2="421.15" xlink:href="#linear-gradient-72"/><linearGradient id="linear-gradient-113" x1="659.12" y1="455.5" x2="695.45" y2="538.16" xlink:href="#linear-gradient-72"/><linearGradient id="linear-gradient-114" x1="641.85" y1="425.02" x2="650.33" y2="425.02" xlink:href="#linear-gradient-72"/><linearGradient id="linear-gradient-115" x1="-2751.12" y1="438.2" x2="-2824.26" y2="514.23" gradientTransform="matrix(-0.97, -0.26, -0.26, 0.97, -1683.55, -536.8)" xlink:href="#linear-gradient-3"/><linearGradient id="linear-gradient-116" x1="-2823.64" y1="592.73" x2="-2647.63" y2="369.61" gradientTransform="matrix(-0.97, -0.26, -0.26, 0.97, -1683.55, -536.8)" xlink:href="#linear-gradient-3"/></defs><title>illustration</title><path class="cls-1" d="M1107.36,450.36a49.52,49.52,0,0,0-98.72-7.94h0a53,53,0,0,1-21,38.18,63,63,0,0,0-25.08,45.47h0A59.2,59.2,0,0,1,935.66,571a71.72,71.72,0,1,0,110.44,66c.17-2.12.24-4.21.23-6.29a74,74,0,0,1,22.85-54,63.23,63.23,0,0,0,17.61-61,41.46,41.46,0,0,1,8.79-37.12A49.25,49.25,0,0,0,1107.36,450.36Z" transform="translate(-75.59 -61.94)"/><path class="cls-2" d="M947.94,674.77a1,1,0,0,1-.57-.18,1,1,0,0,1-.25-1.39c80.72-116.6,112.06-224.64,112.37-225.72a1,1,0,0,1,1.23-.69,1,1,0,0,1,.69,1.24c-.31,1.08-31.74,109.44-112.64,226.31A1,1,0,0,1,947.94,674.77Z" transform="translate(-75.59 -61.94)"/><path class="cls-2" d="M1044.7,491.84a1,1,0,0,1-.65-.24c-11.34-9.87-17.29-40.9-17.54-42.22a1,1,0,0,1,2-.37c.06.32,6.06,31.67,16.88,41.08a1,1,0,0,1-.66,1.75Z" transform="translate(-75.59 -61.94)"/><path class="cls-2" d="M1045.67,491.92a1,1,0,0,1-.26-2c.21-.06,20.83-5.82,33.62-17.18a1,1,0,0,1,1.33,1.49c-13.15,11.68-33.56,17.38-34.42,17.61A.84.84,0,0,1,1045.67,491.92Z" transform="translate(-75.59 -61.94)"/><path class="cls-2" d="M1014.52,560.19a1,1,0,0,1-.78-.37c-15.37-18.68-17.64-49.62-17.67-49.93a1,1,0,1,1,2-.14c0,.3,2.26,30.62,17.22,48.8a1,1,0,0,1-.14,1.41A1,1,0,0,1,1014.52,560.19Z" transform="translate(-75.59 -61.94)"/><path class="cls-2" d="M1016,560.75c-.62,0-1,0-1.11,0a1,1,0,0,1-.93-1.06,1,1,0,0,1,1.05-.94c.22,0,22.37,1,45.89-18.19a1,1,0,0,1,1.4.14,1,1,0,0,1-.14,1.41C1040.69,559.59,1020.83,560.75,1016,560.75Z" transform="translate(-75.59 -61.94)"/><path class="cls-2" d="M974.3,641.35c-1.92,0-3-.08-3.08-.09a1,1,0,1,1,.16-2c.26,0,26.25,1.89,48.42-13.58a1,1,0,0,1,1.15,1.64C1002.72,640.05,982,641.35,974.3,641.35Z" transform="translate(-75.59 -61.94)"/><path class="cls-2" d="M970.47,640.91a1,1,0,0,1-.72-.3c-.65-.67-16-16.85-16.94-48a1,1,0,0,1,1-1,1,1,0,0,1,1,1c.9,30.31,16.22,46.49,16.38,46.65a1,1,0,0,1-.72,1.69Z" transform="translate(-75.59 -61.94)"/><path class="cls-3" d="M935.85,319.68a63.45,63.45,0,1,1,90.86,88.59h0a67.94,67.94,0,0,0-19.11,52.49,80.72,80.72,0,0,1-22.75,62.53h0a75.84,75.84,0,0,0-20.75,63.79,91.89,91.89,0,1,1-156.74-51q2.83-2.91,5.87-5.52A94.78,94.78,0,0,0,846,463.06a81.06,81.06,0,0,1,44.05-68.4,53.12,53.12,0,0,0,28.41-39.77A63.21,63.21,0,0,1,935.85,319.68Z" transform="translate(-75.59 -61.94)"/><path class="cls-2" d="M854.58,662.83a1.07,1.07,0,0,1-.25,0,1,1,0,0,1-.72-1.22c44.6-176.52,122.66-298.15,123.45-299.35a1,1,0,0,1,1.68,1.08c-.79,1.21-78.68,122.57-123.19,298.77A1,1,0,0,1,854.58,662.83Z" transform="translate(-75.59 -61.94)"/><path class="cls-2" d="M953.06,415.5a27.55,27.55,0,0,1-3.62-.23,1,1,0,0,1-.85-1.13,1,1,0,0,1,1.13-.85c18.29,2.51,53.69-18.15,54-18.36a1,1,0,1,1,1,1.72,215.57,215.57,0,0,1-20.38,10.27C971.36,412.62,960.84,415.5,953.06,415.5Z" transform="translate(-75.59 -61.94)"/><path class="cls-2" d="M948.69,414.41a1,1,0,0,1-.9-.57c-.12-.25-12.17-25.48-12-47.94a1,1,0,0,1,1-1h0a1,1,0,0,1,1,1c-.18,22,11.67,46.8,11.79,47.05a1,1,0,0,1-.47,1.34A1.12,1.12,0,0,1,948.69,414.41Z" transform="translate(-75.59 -61.94)"/><path class="cls-2" d="M909.06,502a1,1,0,0,1,0-2c30.25-.88,61.46-24.33,61.78-24.57A1,1,0,0,1,972,477c-.32.24-32,24.07-62.93,25Z" transform="translate(-75.59 -61.94)"/><path class="cls-2" d="M908.21,502.08a1,1,0,0,1-.72-.3c-.2-.21-20.46-21.3-21.76-61.15a1,1,0,0,1,1-1h0a1,1,0,0,1,1,1c.67,20.39,6.39,35.56,11.08,44.7,5.08,9.91,10.06,15.06,10.11,15.11a1,1,0,0,1,0,1.41A1,1,0,0,1,908.21,502.08Z" transform="translate(-75.59 -61.94)"/><path class="cls-2" d="M867.23,612.05a1,1,0,0,1-.7-.28c-.24-.24-24.54-24.29-28.38-59.57a1,1,0,0,1,2-.21c3.77,34.57,27.55,58.11,27.79,58.35a1,1,0,0,1-.7,1.71Z" transform="translate(-75.59 -61.94)"/><path class="cls-2" d="M869.05,612.57c-.52,0-.81,0-.83,0a1,1,0,1,1,.1-2c.28,0,28.9,1.18,59-23.57a1,1,0,0,1,1.41.14,1,1,0,0,1-.14,1.4C900.75,611.43,874,612.57,869.05,612.57Z" transform="translate(-75.59 -61.94)"/><path class="cls-4" d="M128.2,438.61a49.52,49.52,0,0,1,98.32-11.9h0A53,53,0,0,0,249.09,464,63,63,0,0,1,276,508.44h0a59.2,59.2,0,0,0,28.63,43.83,71.72,71.72,0,1,1-107.69,70.36c-.25-2.11-.42-4.2-.49-6.28a74,74,0,0,0-25-53,63.23,63.23,0,0,1-20-60.25,41.44,41.44,0,0,0-10.28-36.73A49.31,49.31,0,0,1,128.2,438.61Z" transform="translate(-75.59 -61.94)"/><path class="cls-2" d="M296.46,656.44a1,1,0,0,1-.8-.4C210.13,542.52,174.37,435.51,174,434.44a1,1,0,0,1,1.9-.63c.35,1.07,36,107.78,121.34,221a1,1,0,0,1-.2,1.41A1,1,0,0,1,296.46,656.44Z" transform="translate(-75.59 -61.94)"/><path class="cls-2" d="M192.43,477.54a1,1,0,0,1-.73-.31,1,1,0,0,1,.05-1.41c10.43-9.84,15.17-41.4,15.21-41.72a1,1,0,0,1,1.14-.85,1,1,0,0,1,.84,1.14c-.19,1.32-4.89,32.57-15.82,42.88A1,1,0,0,1,192.43,477.54Z" transform="translate(-75.59 -61.94)"/><path class="cls-2" d="M191.47,477.66l-.23,0c-.87-.21-21.5-5.08-35.1-16.22a1,1,0,1,1,1.27-1.54c13.23,10.83,34.07,15.76,34.28,15.81a1,1,0,0,1-.22,2Z" transform="translate(-75.59 -61.94)"/><path class="cls-2" d="M225.34,544.62a1,1,0,0,1-.6-.2,1,1,0,0,1-.2-1.4c14.22-18.77,15.24-49.15,15.25-49.46a1,1,0,0,1,1-1,1,1,0,0,1,1,1c0,.31-1,31.32-15.65,50.61A1,1,0,0,1,225.34,544.62Z" transform="translate(-75.59 -61.94)"/><path class="cls-2" d="M222.47,545.26c-6.64,0-25.08-1.55-45.38-16.82a1,1,0,0,1,1.2-1.6c24.27,18.26,46.36,16.36,46.58,16.34a1,1,0,0,1,1.09.89,1,1,0,0,1-.9,1.1C224.89,545.18,224,545.26,222.47,545.26Z" transform="translate(-75.59 -61.94)"/><path class="cls-2" d="M265.76,624.16c-9.26,0-27.49-1.56-44.11-12.19a1,1,0,0,1,1.08-1.69c22.8,14.59,48.67,11.66,48.93,11.62a1,1,0,0,1,.24,2A58.18,58.18,0,0,1,265.76,624.16Z" transform="translate(-75.59 -61.94)"/><path class="cls-2" d="M272.59,623.51a1,1,0,0,1-.74-1.66c.15-.17,14.81-17,14.49-47.27a1,1,0,0,1,1-1h0a1,1,0,0,1,1,1c.32,31.15-14.38,47.92-15,48.62A1,1,0,0,1,272.59,623.51Z" transform="translate(-75.59 -61.94)"/><path class="cls-5" d="M81.58,576.21A40.29,40.29,0,1,1,150.19,534h0a43.15,43.15,0,0,0,29.37,19.89,51.26,51.26,0,0,1,35,23.68h0a48.16,48.16,0,0,0,36.07,22.65A58.35,58.35,0,1,1,195,688.82q-1.35-2.21-2.49-4.47A60.19,60.19,0,0,0,156,653.7,51.44,51.44,0,0,1,120.68,616a33.74,33.74,0,0,0-20.1-23.65A40.08,40.08,0,0,1,81.58,576.21Z" transform="translate(-75.59 -61.94)"/><path class="cls-2" d="M279.71,680.18a1,1,0,0,1-.47-.12c-101.86-54.8-164.73-121.73-165.35-122.4a1,1,0,0,1,1.46-1.36c.62.67,63.28,67.37,164.83,122a1,1,0,0,1-.47,1.88Z" transform="translate(-75.59 -61.94)"/><path class="cls-2" d="M142,583.39a1,1,0,0,1-.37-.08A1,1,0,0,1,141,582c4.34-10.76-2.88-35.63-3-35.88a1,1,0,0,1,.68-1.24,1,1,0,0,1,1.24.67c.31,1.05,7.49,25.8,2.9,37.2A1,1,0,0,1,142,583.39Z" transform="translate(-75.59 -61.94)"/><path class="cls-2" d="M124.52,585.39A58.71,58.71,0,0,1,110,583.74a1,1,0,1,1,.5-1.93c13.44,3.49,30.46.05,30.63,0a1,1,0,0,1,.41,2A92.06,92.06,0,0,1,124.52,585.39Z" transform="translate(-75.59 -61.94)"/><path class="cls-2" d="M189.11,621.75a.82.82,0,0,1-.22,0,1,1,0,0,1-.76-1.19c4.1-18.65-5.46-41.39-5.56-41.62a1,1,0,0,1,1.84-.79c.41,1,9.92,23.56,5.67,42.84A1,1,0,0,1,189.11,621.75Z" transform="translate(-75.59 -61.94)"/><path class="cls-2" d="M163.85,627.85a73.41,73.41,0,0,1-15.61-1.71,1,1,0,1,1,.42-2c24.13,5.23,39.69-3.66,39.85-3.76a1,1,0,0,1,1.37.36,1,1,0,0,1-.36,1.37C189,622.45,179.55,627.85,163.85,627.85Z" transform="translate(-75.59 -61.94)"/><path class="cls-2" d="M217.55,673.24a58.75,58.75,0,0,1-7.94-.54,1,1,0,0,1-.85-1.13,1,1,0,0,1,1.13-.85c21.71,3,39.81-7.93,40-8a1,1,0,0,1,1,1.7A70.47,70.47,0,0,1,217.55,673.24Z" transform="translate(-75.59 -61.94)"/><path class="cls-2" d="M250.87,664a.92.92,0,0,1-.29,0,1,1,0,0,1-.67-1.25c.06-.18,5.15-17.5-5.36-39.72a1,1,0,1,1,1.8-.86c10.87,23,5.7,40.43,5.47,41.16A1,1,0,0,1,250.87,664Z" transform="translate(-75.59 -61.94)"/><path class="cls-6" d="M377.9,314.44A63.45,63.45,0,0,0,263.61,369.6h0a67.94,67.94,0,0,1,1.45,55.84A80.74,80.74,0,0,0,266.8,492h0a75.9,75.9,0,0,1-.57,67.09,91.89,91.89,0,1,0,164.82,1.41c-1.18-2.45-2.46-4.81-3.82-7.1a94.83,94.83,0,0,1-9.67-74.44,81,81,0,0,0-20.05-78.85,53.1,53.1,0,0,1-14.32-46.73A63.11,63.11,0,0,0,377.9,314.44Z" transform="translate(-75.59 -61.94)"/><path class="cls-2" d="M346.35,665.7h-.08a1,1,0,0,1-.92-1.07c13.72-181.21-21.61-321-22-322.41a1,1,0,0,1,1.94-.5c.36,1.39,35.77,141.5,22,323.06A1,1,0,0,1,346.35,665.7Z" transform="translate(-75.59 -61.94)"/><path class="cls-2" d="M334.85,400.79l-.19,0c-7.94-1.5-18.2-7.89-30.5-19a215.15,215.15,0,0,1-16.06-16.21,1,1,0,0,1,.1-1.41,1,1,0,0,1,1.41.1c.27.31,27.27,31.14,45.42,34.56a1,1,0,0,1-.18,2Z" transform="translate(-75.59 -61.94)"/><path class="cls-2" d="M336,400.24a1,1,0,0,1-.72-1.69c.2-.2,19.31-20,26.12-40.88a1,1,0,1,1,1.9.62c-6.95,21.35-26.39,41.45-26.58,41.65A1,1,0,0,1,336,400.24Z" transform="translate(-75.59 -61.94)"/><path class="cls-2" d="M345.74,495.9a1.07,1.07,0,0,1-.35-.06c-29-10.67-51.52-43.33-51.74-43.66a1,1,0,1,1,1.65-1.13c.22.33,22.38,32.47,50.78,42.91a1,1,0,0,1-.34,1.94Z" transform="translate(-75.59 -61.94)"/><path class="cls-2" d="M346.52,496.23a1,1,0,0,1-.45-1.89c.25-.13,25.48-13.39,39.08-50a1,1,0,0,1,1.29-.58,1,1,0,0,1,.58,1.28c-13.88,37.37-39.78,50.94-40,51.07A1,1,0,0,1,346.52,496.23Z" transform="translate(-75.59 -61.94)"/><path class="cls-2" d="M350.47,613.53a1,1,0,0,1-.44-1.9c.31-.15,30.35-15,44.88-46.51a1,1,0,1,1,1.81.83c-14.84,32.24-45.51,47.33-45.82,47.48A1,1,0,0,1,350.47,613.53Z" transform="translate(-75.59 -61.94)"/><path class="cls-2" d="M349.33,613.67l-.27,0c-.29-.08-28.51-8.22-49.64-41.95a1,1,0,1,1,1.69-1.06c20.72,33.07,48.21,41,48.48,41.08a1,1,0,0,1-.26,2Z" transform="translate(-75.59 -61.94)"/><path class="cls-7" d="M303.69,596.89H590.07V539.57H303.69C309.82,539.57,309.82,596.89,303.69,596.89Z" transform="translate(-75.59 -61.94)"/><path class="cls-8" d="M590.07,582.55V556.32c0-9.25-5.66-16.75-12.64-16.75H304.9a9.94,9.94,0,0,1-9.94-9.94h0a3,3,0,0,1,3-3H595.84c6.83,0,17.67,10.74,17.67,24v36.64c0,12.49-10.53,22.61-17,22.61h-297a4.58,4.58,0,0,1-4.59-4.58h0a8.38,8.38,0,0,1,8.37-8.38H579.24C585.22,596.89,590.07,590.47,590.07,582.55Z" transform="translate(-75.59 -61.94)"/><path class="cls-2" d="M582.13,552.33H313.61a1,1,0,0,1,0-2H582.13a1,1,0,0,1,0,2Z" transform="translate(-75.59 -61.94)"/><path class="cls-2" d="M582.13,560.84H313.61a1,1,0,0,1,0-2H582.13a1,1,0,0,1,0,2Z" transform="translate(-75.59 -61.94)"/><path class="cls-2" d="M582.13,569.35H313.61a1,1,0,0,1,0-2H582.13a1,1,0,0,1,0,2Z" transform="translate(-75.59 -61.94)"/><path class="cls-2" d="M582.13,577.86H313.61a1,1,0,0,1,0-2H582.13a1,1,0,0,1,0,2Z" transform="translate(-75.59 -61.94)"/><path class="cls-2" d="M582.13,586.37H313.61a1,1,0,0,1,0-2H582.13a1,1,0,0,1,0,2Z" transform="translate(-75.59 -61.94)"/><rect class="cls-9" x="160.38" y="547.12" width="517.03" height="124.8" rx="21.39"/><rect class="cls-10" x="218.82" y="561.46" width="60.74" height="96.12" rx="7.24"/><rect class="cls-11" x="288.49" y="561.46" width="22.79" height="96.12" rx="5.89"/><path class="cls-12" d="M800.18,724.91h286.38V667.59H800.18C806.31,667.59,806.31,724.91,800.18,724.91Z" transform="translate(-75.59 -61.94)"/><path class="cls-13" d="M1086.56,710.56V684.33c0-9.24-5.66-16.74-12.64-16.74H801.39a9.94,9.94,0,0,1-9.94-9.94h0a3,3,0,0,1,3-3h297.85c6.83,0,17.68,10.74,17.68,24v36.63c0,12.49-10.53,22.62-17,22.62H796a4.59,4.59,0,0,1-4.58-4.59h0a8.37,8.37,0,0,1,8.37-8.37h275.91C1081.71,724.91,1086.56,718.49,1086.56,710.56Z" transform="translate(-75.59 -61.94)"/><path class="cls-2" d="M1078.62,680.35H810.1a1,1,0,0,1,0-2h268.52a1,1,0,0,1,0,2Z" transform="translate(-75.59 -61.94)"/><path class="cls-2" d="M1078.62,688.86H810.1a1,1,0,0,1,0-2h268.52a1,1,0,0,1,0,2Z" transform="translate(-75.59 -61.94)"/><path class="cls-2" d="M1078.62,697.37H810.1a1,1,0,0,1,0-2h268.52a1,1,0,0,1,0,2Z" transform="translate(-75.59 -61.94)"/><path class="cls-2" d="M1078.62,705.87H810.1a1,1,0,0,1,0-2h268.52a1,1,0,0,1,0,2Z" transform="translate(-75.59 -61.94)"/><path class="cls-2" d="M1078.62,714.38H810.1a1,1,0,0,1,0-2h268.52a1,1,0,0,1,0,2Z" transform="translate(-75.59 -61.94)"/><rect class="cls-14" x="828.47" y="592.17" width="257.69" height="62.2" rx="20.09" transform="translate(1839.02 1184.6) rotate(180)"/><rect class="cls-15" x="1026.76" y="599.31" width="30.27" height="47.9" rx="7.24" transform="translate(2008.19 1184.6) rotate(180)"/><rect class="cls-15" x="1010.95" y="599.31" width="11.36" height="47.9" rx="3.67" transform="translate(1957.66 1184.6) rotate(180)"/><g class="cls-16"><path class="cls-17" d="M977.13,306.11a1,1,0,0,1-.92-.62,1,1,0,0,1,.54-1.31c1.21-.5,2.43-1,3.62-1.59a1,1,0,1,1,.84,1.81c-1.21.57-2.46,1.12-3.69,1.63A1.09,1.09,0,0,1,977.13,306.11Z" transform="translate(-75.59 -61.94)"/><path class="cls-17" d="M940.39,313.41c-1.68,0-3.38-.05-5-.13a1,1,0,0,1-.94-1,1,1,0,0,1,1.05-1c2.66.14,5.35.17,8,.08h0a1,1,0,0,1,0,2C942.5,313.39,941.44,313.41,940.39,313.41ZM956.66,312a1,1,0,0,1-.16-2c2.64-.45,5.29-1,7.86-1.69a1,1,0,0,1,.51,1.94c-2.64.68-5.34,1.26-8,1.72Zm-34.37-.36h-.19c-2.67-.52-5.36-1.17-8-1.91a1,1,0,1,1,.55-1.93c2.57.74,5.2,1.36,7.82,1.87a1,1,0,0,1-.19,2ZM902,305.29a1,1,0,0,1-.4-.09c-2.5-1.11-5-2.33-7.37-3.65a1,1,0,0,1-.39-1.35,1,1,0,0,1,1.36-.4c2.34,1.29,4.76,2.49,7.21,3.57a1,1,0,0,1,.51,1.32A1,1,0,0,1,902,305.29Zm-18.39-10.75a1,1,0,0,1-.6-.2c-2.19-1.63-4.33-3.38-6.37-5.19a1,1,0,1,1,1.33-1.49c2,1.77,4.09,3.48,6.24,5.07a1,1,0,0,1-.6,1.81ZM868,280a1,1,0,0,1-.76-.35c-1.77-2.08-3.48-4.25-5.07-6.47a1,1,0,0,1,1.63-1.16c1.55,2.16,3.22,4.29,5,6.33A1,1,0,0,1,868,280Zm-11.94-17.63a1,1,0,0,1-.89-.54c-1.27-2.41-2.45-4.91-3.5-7.43a1,1,0,0,1,1.84-.77c1,2.46,2.19,4.91,3.43,7.27a1,1,0,0,1-.88,1.47Zm-7.72-19.85a1,1,0,0,1-1-.75c-.7-2.63-1.29-5.33-1.75-8a1,1,0,1,1,2-.35c.45,2.64,1,5.28,1.71,7.86a1,1,0,0,1-.71,1.22A.78.78,0,0,1,848.35,242.51Zm-3.1-21.08a1,1,0,0,1-1-1c0-1.16-.06-2.32-.06-3.47,0-1.58,0-3.18.12-4.75a1,1,0,0,1,1-.95,1,1,0,0,1,.95,1c-.07,1.54-.11,3.1-.11,4.65,0,1.13,0,2.26.06,3.4a1,1,0,0,1-1,1Zm1.62-21.24-.19,0a1,1,0,0,1-.79-1.17c.51-2.68,1.14-5.37,1.88-8a1,1,0,0,1,1.24-.69,1,1,0,0,1,.69,1.23c-.73,2.58-1.35,5.21-1.85,7.83A1,1,0,0,1,846.87,200.19Z" transform="translate(-75.59 -61.94)"/><path class="cls-17" d="M853.22,179.77a1,1,0,0,1-.4-.08,1,1,0,0,1-.51-1.32c.53-1.21,1.1-2.45,1.7-3.66a1,1,0,0,1,1.8.88c-.59,1.19-1.15,2.4-1.67,3.59A1,1,0,0,1,853.22,179.77Z" transform="translate(-75.59 -61.94)"/><path class="cls-17" d="M907.64,128.62a1,1,0,0,1-.34-1.94c1.27-.47,2.55-.91,3.82-1.31a1,1,0,0,1,1.26.65,1,1,0,0,1-.65,1.25c-1.24.4-2.5.83-3.74,1.29A1,1,0,0,1,907.64,128.62Z" transform="translate(-75.59 -61.94)"/><path class="cls-17" d="M1030.89,248.37a.91.91,0,0,1-.32-.06,1,1,0,0,1-.63-1.26c.84-2.49,1.58-5.05,2.2-7.61a1,1,0,0,1,1.94.47c-.63,2.62-1.39,5.23-2.24,7.77A1,1,0,0,1,1030.89,248.37Zm4.42-20.5h-.1a1,1,0,0,1-.89-1.1c.26-2.62.42-5.27.47-7.9a1,1,0,1,1,2,0c0,2.69-.21,5.4-.48,8.07A1,1,0,0,1,1035.31,227.87Zm-.17-21a1,1,0,0,1-1-.88c-.31-2.61-.73-5.24-1.26-7.81a1,1,0,0,1,2-.4c.54,2.62,1,5.31,1.28,8a1,1,0,0,1-.88,1.11Zm-4.72-20.42a1,1,0,0,1-.94-.67c-.87-2.48-1.86-4.95-2.93-7.35a1,1,0,1,1,1.82-.81c1.1,2.44,2.11,5,3,7.5a1,1,0,0,1-.62,1.28A.91.91,0,0,1,1030.42,186.48Zm-9.08-18.87a1,1,0,0,1-.84-.47c-1.4-2.23-2.9-4.43-4.48-6.53a1,1,0,0,1,1.6-1.2c1.61,2.15,3.15,4.39,4.57,6.67a1,1,0,0,1-.32,1.37A.94.94,0,0,1,1021.34,167.61Zm-13-16.44a1,1,0,0,1-.71-.3c-1.85-1.87-3.8-3.68-5.79-5.39a1,1,0,1,1,1.3-1.52c2,1.74,4,3.6,5.91,5.51a1,1,0,0,1,0,1.41A.94.94,0,0,1,1008.34,151.17ZM992.07,138a1.06,1.06,0,0,1-.54-.16c-2.22-1.43-4.52-2.78-6.83-4a1,1,0,0,1,.94-1.77c2.36,1.26,4.71,2.64,7,4.1a1,1,0,0,1,.3,1.38A1,1,0,0,1,992.07,138ZM973.3,128.6a1,1,0,0,1-.34-.06c-2.47-.91-5-1.72-7.54-2.41a1,1,0,1,1,.53-1.93c2.59.71,5.18,1.54,7.7,2.46a1,1,0,0,1-.35,1.94Zm-49.25-4.38a1,1,0,0,1-.17-2c2.63-.46,5.33-.81,8-1a1,1,0,0,1,1.09.9,1,1,0,0,1-.91,1.09c-2.63.23-5.27.58-7.85,1Zm28.89-.62h-.13c-2.61-.34-5.26-.58-7.88-.7a1,1,0,1,1,.09-2c2.68.12,5.39.36,8.05.71a1,1,0,0,1,.86,1.12A1,1,0,0,1,952.94,123.6Z" transform="translate(-75.59 -61.94)"/><path class="cls-17" d="M1024,264a1,1,0,0,1-.48-.12,1,1,0,0,1-.39-1.36c.63-1.16,1.25-2.34,1.83-3.5a1,1,0,0,1,1.79.89c-.59,1.19-1.22,2.39-1.87,3.57A1,1,0,0,1,1024,264Z" transform="translate(-75.59 -61.94)"/><path class="cls-18" d="M999.72,260.15a1.14,1.14,0,0,0,.15-1.32l-6.71-12.2a60.61,60.61,0,0,0,6.6-18.5l12.91-5.19a1.14,1.14,0,0,0,.72-1.12l-.84-16.68a1.14,1.14,0,0,0-.82-1l-13.36-3.87a60.7,60.7,0,0,0-8.43-17.75l5.47-12.8a1.16,1.16,0,0,0-.29-1.3l-12.38-11.2a1.15,1.15,0,0,0-1.32-.16l-12.2,6.72a60.63,60.63,0,0,0-18.5-6.61l-5.19-12.91a1.13,1.13,0,0,0-1.12-.71l-16.67.83a1.17,1.17,0,0,0-1,.83l-3.87,13.36A60.67,60.67,0,0,0,905.07,167l-12.8-5.46a1.15,1.15,0,0,0-1.3.28l-11.2,12.39a1.15,1.15,0,0,0-.16,1.32l6.72,12.19a60.6,60.6,0,0,0-6.61,18.51l-12.91,5.18a1.14,1.14,0,0,0-.71,1.12l.83,16.68a1.14,1.14,0,0,0,.83,1l13.36,3.87a60.55,60.55,0,0,0,8.42,17.75l-5.46,12.81a1.12,1.12,0,0,0,.29,1.29l12.38,11.21a1.15,1.15,0,0,0,1.32.15l12.19-6.72a60.6,60.6,0,0,0,18.51,6.61L934,290.08a1.17,1.17,0,0,0,1.12.72l16.68-.84a1.12,1.12,0,0,0,1-.82l3.87-13.37a60.55,60.55,0,0,0,17.75-8.42l12.81,5.46a1.14,1.14,0,0,0,1.3-.28Z" transform="translate(-75.59 -61.94)"/><path class="cls-2" d="M939.75,233.48a16.33,16.33,0,1,1,4.78-.72A16.35,16.35,0,0,1,939.75,233.48Zm0-29.66a13.33,13.33,0,1,0,12.73,9.43h0a13.35,13.35,0,0,0-12.73-9.43Z" transform="translate(-75.59 -61.94)"/><path class="cls-2" d="M939.44,258.73A41.84,41.84,0,0,1,897.72,219c0-.71-.05-1.41-.05-2.12a41.79,41.79,0,0,1,83.53-2.07c0,.71,0,1.41.06,2.12a42.54,42.54,0,0,1-.55,6.77l-3-.49a38.65,38.65,0,0,0,.51-6.28c0-.66,0-1.31,0-2h0a38.79,38.79,0,0,0-77.54,1.9c0,.66,0,1.32.05,2A38.8,38.8,0,0,0,961,249.19l1.67,2.5a41.77,41.77,0,0,1-21.14,7C940.84,258.71,940.14,258.73,939.44,258.73Z" transform="translate(-75.59 -61.94)"/><path class="cls-19" d="M885.18,150l-4.29-6.51a34.23,34.23,0,0,0,2.87-10.63l7-3.47a.65.65,0,0,0,.35-.66l-1.21-9.27a.65.65,0,0,0-.51-.55l-7.63-1.57a34.06,34.06,0,0,0-5.49-9.54l2.48-7.39a.63.63,0,0,0-.22-.71L871.1,94a.65.65,0,0,0-.75,0l-6.51,4.3a33.69,33.69,0,0,0-10.63-2.87l-3.47-7a.62.62,0,0,0-.65-.35l-9.28,1.2a.66.66,0,0,0-.55.51l-1.57,7.64a34,34,0,0,0-9.54,5.49l-7.39-2.48a.64.64,0,0,0-.71.21l-5.71,7.42a.63.63,0,0,0,0,.74l4.3,6.51A33.69,33.69,0,0,0,815.74,126l-7,3.47a.63.63,0,0,0-.35.66l1.2,9.28a.64.64,0,0,0,.51.54l7.64,1.57a34.06,34.06,0,0,0,5.49,9.54l-2.48,7.4a.65.65,0,0,0,.21.71l7.42,5.7a.63.63,0,0,0,.74,0l6.51-4.29a34.23,34.23,0,0,0,10.63,2.87l3.47,7a.66.66,0,0,0,.66.35l9.28-1.21a.64.64,0,0,0,.54-.51l1.57-7.63a33.84,33.84,0,0,0,9.54-5.5l7.4,2.49a.65.65,0,0,0,.71-.22l5.7-7.41A.65.65,0,0,0,885.18,150Z" transform="translate(-75.59 -61.94)"/><path class="cls-2" d="M849.75,139.23a9.81,9.81,0,0,1-9.12-6.21,9.8,9.8,0,0,1,5.51-12.72,9.82,9.82,0,0,1,12.73,5.51h0a9.81,9.81,0,0,1-9.12,13.42Zm0-16.62a6.82,6.82,0,0,0-6.24,4.1,6.81,6.81,0,1,0,6.24-4.1Z" transform="translate(-75.59 -61.94)"/><path class="cls-17" d="M880.16,170.31a1,1,0,0,1-.61-1.8c1-.79,2.05-1.63,3-2.49a1,1,0,0,1,1.34,1.48c-1,.91-2.07,1.78-3.15,2.61A1,1,0,0,1,880.16,170.31Z" transform="translate(-75.59 -61.94)"/><path class="cls-17" d="M849.13,180.58h0a50.44,50.44,0,0,1-8-.73,1,1,0,0,1-.82-1.15,1,1,0,0,1,1.16-.82,48.87,48.87,0,0,0,7.63.7,1,1,0,0,1,0,2Zm12.61-1.46a1,1,0,0,1-.24-2,49.42,49.42,0,0,0,6.32-2q.48-.18,1-.39a1,1,0,0,1,.77,1.85l-1,.4a51.38,51.38,0,0,1-6.58,2.11Zm-32.54-3a1.15,1.15,0,0,1-.41-.08,51,51,0,0,1-7-3.83,1,1,0,0,1-.29-1.38,1,1,0,0,1,1.38-.29,49.76,49.76,0,0,0,6.73,3.67,1,1,0,0,1-.41,1.91Zm-16.54-12a1,1,0,0,1-.74-.32,50.54,50.54,0,0,1-4.89-6.3,1,1,0,0,1,.28-1.38,1,1,0,0,1,1.39.28,48.25,48.25,0,0,0,4.7,6,1,1,0,0,1-.06,1.41A1,1,0,0,1,812.66,164.21Zm-10.38-17.57a1,1,0,0,1-.95-.67,51.9,51.9,0,0,1-2-7.73,1,1,0,1,1,2-.35,49.14,49.14,0,0,0,1.92,7.43,1,1,0,0,1-.63,1.27A.86.86,0,0,1,802.28,146.64Z" transform="translate(-75.59 -61.94)"/><path class="cls-17" d="M799.74,126.34h-.09a1,1,0,0,1-.91-1.08c.11-1.35.28-2.71.5-4.05a1,1,0,1,1,2,.32c-.21,1.29-.37,2.6-.48,3.89A1,1,0,0,1,799.74,126.34Z" transform="translate(-75.59 -61.94)"/><path class="cls-17" d="M819.52,90.37a1,1,0,0,1-.61-1.8c1.08-.81,2.21-1.59,3.36-2.32a1,1,0,0,1,1.38.31,1,1,0,0,1-.31,1.38c-1.1.7-2.19,1.45-3.22,2.23A1,1,0,0,1,819.52,90.37Z" transform="translate(-75.59 -61.94)"/><path class="cls-17" d="M899.53,124.27a1,1,0,0,1-1-.87A49.16,49.16,0,0,0,897,116a1,1,0,1,1,1.93-.55,51.88,51.88,0,0,1,1.56,7.69,1,1,0,0,1-.87,1.11Zm-6.4-19a1,1,0,0,1-.87-.5A49.08,49.08,0,0,0,888,98.53a1,1,0,0,1,.15-1.41,1,1,0,0,1,1.4.15,50.4,50.4,0,0,1,4.44,6.47,1,1,0,0,1-.36,1.36A.93.93,0,0,1,893.13,105.24Zm-13.35-15a1,1,0,0,1-.59-.2,49.63,49.63,0,0,0-6.37-4,1,1,0,1,1,.94-1.76,49.94,49.94,0,0,1,6.62,4.19,1,1,0,0,1-.6,1.81Zm-45.69-7.49a1,1,0,0,1-.31-2,51.69,51.69,0,0,1,7.62-1.88,1,1,0,0,1,.33,2,49.34,49.34,0,0,0-7.33,1.81A1.06,1.06,0,0,1,834.09,82.76Zm27.54-1.08a1,1,0,0,1-.24,0A49.32,49.32,0,0,0,854,80.43a1,1,0,0,1,.17-2,51.86,51.86,0,0,1,7.74,1.28,1,1,0,0,1-.23,2Z" transform="translate(-75.59 -61.94)"/><path class="cls-17" d="M898.83,140.74a.75.75,0,0,1-.21,0,1,1,0,0,1-.77-1.18c.27-1.28.49-2.58.65-3.87a1,1,0,0,1,2,.26c-.18,1.33-.41,2.69-.69,4A1,1,0,0,1,898.83,140.74Z" transform="translate(-75.59 -61.94)"/><path class="cls-2" d="M849.56,153.39a24.08,24.08,0,1,1,23.9-27.19,24.54,24.54,0,0,1,.13,4.92c0,.07,0,.14,0,.21l-3-.25c0-.58.07-1.16.07-1.74a21.16,21.16,0,0,0-.18-2.75,21.08,21.08,0,0,0-42,2.68,21.43,21.43,0,0,0,.18,2.76,21.08,21.08,0,0,0,34,13.82l1.86,2.35a24,24,0,0,1-11.82,5A23.74,23.74,0,0,1,849.56,153.39Z" transform="translate(-75.59 -61.94)"/></g><path class="cls-20" d="M907.07,231.63l18.87,1.18a17.52,17.52,0,0,1,16.42,17.74L935.77,698.4A18.38,18.38,0,0,1,917,716.51l-129.59-2.77Z" transform="translate(-75.59 -61.94)"/><path class="cls-21" d="M680.74,232,920,220.44a8.48,8.48,0,0,1,8.89,8.75L914.11,690.67a17.74,17.74,0,0,1-18.44,17.16l-168.15-6.76Z" transform="translate(-75.59 -61.94)"/><path class="cls-22" d="M693.51,241.71l210.42-26.85a8.92,8.92,0,0,1,10.05,9L903.74,689.36a12.32,12.32,0,0,1-12,12L737,705.94Z" transform="translate(-75.59 -61.94)"/><path class="cls-23" d="M638.21,218.57,868.9,204.21a20,20,0,0,1,21.22,19.93V699.45a17.46,17.46,0,0,1-17.46,17.45H660A18.88,18.88,0,0,1,641.11,699L616.55,242.89A23.13,23.13,0,0,1,638.21,218.57Z" transform="translate(-75.59 -61.94)"/><rect class="cls-24" x="796.59" y="187.62" width="35.86" height="141.84" rx="9.52"/><path class="cls-25" d="M410.77,223.45s-76.94,39.6-112.89-2.81c-28.89-34.09,21-9.3,68.66-2.42a3,3,0,0,0,1.09-5.81c-36.16-8.35-90.13-24.33-92.52-45.72-3.62-32.28,6.45-18.48,46.93,1.17s52.45,12.32,27.49-4.4-73.88-18.78-79-35.86-.84-45.49-.64-58.34,62.84-8.74,72.48,11.84,9.54,58.39,25.32,71.22,7.37-23.81,1.08-43.45-6.81-32.69,15.75-20.11,24.26,46.52,18.61,69.26-1.79,38.08,1.87,27.16,12.14-45.45,8.23-58.26S459.28,146.71,410.77,223.45Z" transform="translate(-75.59 -61.94)"/><g class="cls-26"><path class="cls-27" d="M396.35,247.14s-26,64.93-70.41,58.09c-35.69-5.51,7.91-16.81,40.64-37.85a2.39,2.39,0,0,0-2.41-4.13c-26.5,14.06-67.91,32.89-80.71,21.11-19.3-17.8-5.84-14.7,29.28-24.15S351.28,240,327.18,243s-55,27.67-67.25,20-24.61-27.32-31.29-35.27S262.37,189,279.15,196.5s36.76,30.6,53.19,30.07-8.12-18.44-22.36-27.1-21.47-16.35-1-20.62,39.45,15.55,48,32.42,19.08,24.2,15.53,15.59-16.66-34.18-25.84-39.92S385.31,174.59,396.35,247.14Z" transform="translate(-75.59 -61.94)"/></g><path class="cls-28" d="M416.64,144.5H781.88a37.83,37.83,0,0,1,37.79,35.91l27,529.54a27.9,27.9,0,0,1-27.36,29.32l-418.61,7.61a26.49,26.49,0,0,1-27-26.49V187.45A43,43,0,0,1,416.64,144.5Z" transform="translate(-75.59 -61.94)"/><path class="cls-2" d="M461.84,737.87h0l-46.85-.6a28.88,28.88,0,0,1-28.4-28.78V637.77a1,1,0,0,1,2,0v70.72A26.88,26.88,0,0,0,415,735.27l46.84.6a1,1,0,0,1,0,2Z" transform="translate(-75.59 -61.94)"/><path class="cls-2" d="M387.58,616.87a1,1,0,0,1-1-1V604.41a1,1,0,0,1,2,0v11.46A1,1,0,0,1,387.58,616.87Z" transform="translate(-75.59 -61.94)"/><path class="cls-29" d="M417.76,140.21C467.64,147,639.16,167.89,781,157a11.55,11.55,0,0,1,12.43,10.88l28.26,531.9a13.27,13.27,0,0,1-12.47,14c-59.64,3.53-305.26,17.18-392.87,8a10.52,10.52,0,0,1-9.41-10.41l-3.29-558.68A12.48,12.48,0,0,1,417.76,140.21Z" transform="translate(-75.59 -61.94)"/><path class="cls-15" d="M423.1,154c48,6.51,213.06,26.64,349.53,16.17a11.1,11.1,0,0,1,12,10.47l27.21,511.87a12.77,12.77,0,0,1-12,13.43c-57.4,3.4-293.77,16.53-378.08,7.7a10.13,10.13,0,0,1-9.06-10L409.49,166A12,12,0,0,1,423.1,154Z" transform="translate(-75.59 -61.94)"/><path class="cls-30" d="M453.92,205.44,459,315.18a7,7,0,0,0,6.77,6.66c20.32.57,83.65,2.11,119.41.25a7.78,7.78,0,0,0,7.38-7.53c.68-20.58,2.17-80.48-2.52-105.52a8.77,8.77,0,0,0-8.34-7.15l-120.13-4.21A7.42,7.42,0,0,0,453.92,205.44Z" transform="translate(-75.59 -61.94)"/><circle class="cls-31" cx="447.45" cy="182.74" r="23.59"/><path class="cls-32" d="M487.21,313.94h75.16a5.82,5.82,0,0,0,4.89-9c-6.39-10-19.74-24.67-42.88-24-22.29.63-35.5,13.89-42.15,23.4A6.08,6.08,0,0,0,487.21,313.94Z" transform="translate(-75.59 -61.94)"/><g class="cls-33"><path class="cls-2" d="M754.74,215a3.74,3.74,0,0,0,3.9-3.68,4.09,4.09,0,0,0-4.11-3.75L622.24,205.2a2.6,2.6,0,0,0-2.67,3.7l.82,2.32a6,6,0,0,0,5.32,3.77Z" transform="translate(-75.59 -61.94)"/></g><g class="cls-33"><path class="cls-2" d="M622.24,225.66a2.6,2.6,0,0,0-2.67,3.7l.82,2.32a6.06,6.06,0,0,0,5.32,3.77h129a3.74,3.74,0,0,0,3.9-3.68,4.09,4.09,0,0,0-4.11-3.75Z" transform="translate(-75.59 -61.94)"/></g><g class="cls-33"><path class="cls-2" d="M622.24,246.42a2.6,2.6,0,0,0-2.67,3.7l.82,2.32a6.06,6.06,0,0,0,5.32,3.77h129a3.74,3.74,0,0,0,3.9-3.68,4.09,4.09,0,0,0-4.11-3.76Z" transform="translate(-75.59 -61.94)"/></g><path class="cls-34" d="M708.75,264.58c10.16-.77,29.18-1.14,39.66-1.28a9.49,9.49,0,0,1,9.37,7.26,154.79,154.79,0,0,1,4.46,38.34,8.44,8.44,0,0,1-8.51,8.26l-38.65-.42a9.28,9.28,0,0,1-9.14-8.42L702.54,272A6.77,6.77,0,0,1,708.75,264.58Z" transform="translate(-75.59 -61.94)"/><path class="cls-35" d="M744.64,309.85l-9.78-4.23a2.55,2.55,0,0,0-2.34.18l-9,5.67a2.52,2.52,0,0,1-3.85-2.37l1-10.61a2.52,2.52,0,0,0-.89-2.17l-8.18-6.84a2.52,2.52,0,0,1,1.06-4.39l10.4-2.33a2.52,2.52,0,0,0,1.79-1.52l4-9.89a2.51,2.51,0,0,1,4.5-.34l5.43,9.17a2.54,2.54,0,0,0,2,1.23l10.63.72a2.52,2.52,0,0,1,1.72,4.18l-7,8a2.49,2.49,0,0,0-.55,2.28l2.59,10.34A2.51,2.51,0,0,1,744.64,309.85Z" transform="translate(-75.59 -61.94)"/><path class="cls-2" d="M722.38,295.71a4.78,4.78,0,0,0-1.07-1.26L716,290a1.92,1.92,0,0,1-.63-1.92,1.89,1.89,0,0,1,1.43-1.41l6.8-1.52a5,5,0,0,0,3.51-3l2.6-6.46a1.91,1.91,0,0,1,3.41-.26l1.81,3.06-.46.28-1.82-3.06a1.36,1.36,0,0,0-2.44.18l-2.6,6.46a5.47,5.47,0,0,1-3.89,3.31l-6.8,1.53a1.33,1.33,0,0,0-1,1,1.35,1.35,0,0,0,.46,1.37l5.34,4.46a5.71,5.71,0,0,1,1.19,1.4Z" transform="translate(-75.59 -61.94)"/><path class="cls-2" d="M724.31,307.73a1.9,1.9,0,0,1-1.9-2.08l.5-5.31.54.05-.5,5.31A1.37,1.37,0,0,0,725,307l5.9-3.7a5.55,5.55,0,0,1,5.1-.39l6.39,2.76a1.36,1.36,0,0,0,1.86-1.59l-1.69-6.75a5.51,5.51,0,0,1,1.2-5l4.6-5.22a1.37,1.37,0,0,0-.93-2.27l-7-.47a5.45,5.45,0,0,1-2-.56l.24-.48a4.94,4.94,0,0,0,1.85.5l7,.47a1.91,1.91,0,0,1,1.3,3.16l-4.6,5.23a5,5,0,0,0-1.09,4.48l1.7,6.75a1.91,1.91,0,0,1-2.61,2.22l-6.39-2.76a5,5,0,0,0-4.6.35l-5.89,3.7A1.91,1.91,0,0,1,724.31,307.73Z" transform="translate(-75.59 -61.94)"/><rect class="cls-2" x="734.94" y="278.48" width="0.54" height="2.11" transform="translate(-115.42 351.72) rotate(-30.64)"/><path class="cls-36" d="M685,283.08a3.8,3.8,0,0,0,3.95-3.69,4.1,4.1,0,0,0-4-3.82l-61.34-2.21a3.12,3.12,0,0,0-3.32,3.79l.35,2a5,5,0,0,0,4.68,3.94Z" transform="translate(-75.59 -61.94)"/><path class="cls-37" d="M623.35,297.45a3.11,3.11,0,0,0-3.17,3.91l.42,2a4.94,4.94,0,0,0,4.82,3.77l59.69-2.19a3.8,3.8,0,0,0,3.81-3.82,4.11,4.11,0,0,0-4.19-3.68Z" transform="translate(-75.59 -61.94)"/><g class="cls-33"><path class="cls-2" d="M767.54,356.3a3.56,3.56,0,0,0,3.75-3.68,4.22,4.22,0,0,0-4.24-3.71l-309.16-2.44c-2.2,0-2.88,1.38-1.51,3.1l2.87,3.6a9.42,9.42,0,0,0,6.49,3.13Z" transform="translate(-75.59 -61.94)"/></g><g class="cls-33"><path class="cls-2" d="M457.89,366.93c-2.2,0-2.88,1.37-1.51,3.1l2.87,3.6a9.42,9.42,0,0,0,6.49,3.13h301.8a3.56,3.56,0,0,0,3.75-3.68,4.21,4.21,0,0,0-4.24-3.71Z" transform="translate(-75.59 -61.94)"/></g><path class="cls-38" d="M456.77,401.09c7.42-.57,21.32-.83,29-.94a6.92,6.92,0,0,1,6.84,5.3,113.11,113.11,0,0,1,3.26,28,6.15,6.15,0,0,1-6.22,6l-28.22-.3a6.79,6.79,0,0,1-6.68-6.15l-2.48-26.55A4.93,4.93,0,0,1,456.77,401.09Z" transform="translate(-75.59 -61.94)"/><g class="cls-33"><path class="cls-2" d="M508.69,412a3.18,3.18,0,0,0-3.4,3.79l.77,5.1a4.8,4.8,0,0,0,4.59,4h69.11a4,4,0,0,0,4-4l0-1.72a4.28,4.28,0,0,0-4.05-4.16Z" transform="translate(-75.59 -61.94)"/></g><path class="cls-39" d="M610.55,401.09c7.42-.57,21.31-.83,29-.94a6.92,6.92,0,0,1,6.84,5.3,112.63,112.63,0,0,1,3.26,28,6.15,6.15,0,0,1-6.21,6l-28.23-.3A6.77,6.77,0,0,1,608.5,433L606,406.48A4.94,4.94,0,0,1,610.55,401.09Z" transform="translate(-75.59 -61.94)"/><g class="cls-33"><path class="cls-2" d="M662.46,412a3.18,3.18,0,0,0-3.4,3.79l.77,5.1a4.8,4.8,0,0,0,4.59,4h69.11a4,4,0,0,0,4-4l0-1.72a4.27,4.27,0,0,0-4-4.16Z" transform="translate(-75.59 -61.94)"/></g><path class="cls-40" d="M470.66,464.11c18.52-.78,58.76-3.31,77.84-3.46,8.09-.06,15.18,3,17.08,7.3,3.68,8.43,3.19,25.24,2.55,40.75-.19,4.64-7.08,8.35-15.49,8.3l-70.43-.42c-8.66-.05-15.85-3.7-16.66-8.46l-6.19-36.59C458.72,467.75,463.8,464.4,470.66,464.11Z" transform="translate(-75.59 -61.94)"/><g class="cls-33"><path class="cls-2" d="M471.1,528.4a3.3,3.3,0,0,0-3.59,3.74l1.8,17.89a4.54,4.54,0,0,0,4.4,4h94.78a4,4,0,0,0,4-4l-.1-11.3a4.37,4.37,0,0,0-4-4.25Z" transform="translate(-75.59 -61.94)"/></g><path class="cls-41" d="M469.1,575.78c6.84-.47,21.73-2,28.78-2.06a6.31,6.31,0,0,1,6.32,4.36c1.36,5,1.18,15.08.94,24.34a5.41,5.41,0,0,1-5.73,5l-26-.25a6,6,0,0,1-6.16-5.06l-2.29-21.85A4.23,4.23,0,0,1,469.1,575.78Z" transform="translate(-75.59 -61.94)"/><g class="cls-33"><path class="cls-2" d="M471.76,614.44a3.47,3.47,0,0,0-3.9,3.6l.81,42.21a4.11,4.11,0,0,0,4.08,4h30a4,4,0,0,0,4-4L506.7,622a4.53,4.53,0,0,0-4-4.4Z" transform="translate(-75.59 -61.94)"/></g><path class="cls-42" d="M520,575.78c6.85-.47,21.73-2,28.79-2.06a6.32,6.32,0,0,1,6.32,4.36c1.36,5,1.18,15.08.94,24.34a5.42,5.42,0,0,1-5.73,5l-26.05-.25a6,6,0,0,1-6.16-5.06l-2.29-21.85A4.25,4.25,0,0,1,520,575.78Z" transform="translate(-75.59 -61.94)"/><g class="cls-33"><path class="cls-2" d="M522.7,614.44a3.48,3.48,0,0,0-3.91,3.6l.81,42.21a4.11,4.11,0,0,0,4.08,4h30a4,4,0,0,0,4-4L557.64,622a4.55,4.55,0,0,0-4-4.4Z" transform="translate(-75.59 -61.94)"/></g><path class="cls-2" d="M618.54,495.09h-.07l-26.05-.25a7,7,0,0,1-7.14-5.95L583,467a4.71,4.71,0,0,1,1.12-3.57,5.68,5.68,0,0,1,4-2h0c2.2-.15,5.29-.42,8.56-.7,6.89-.58,15.46-1.31,20.29-1.37a7.27,7.27,0,0,1,7.29,5.1c1.36,5,1.24,14.51,1,24.63C625.13,492.44,622.14,495.09,618.54,495.09Zm-30.31-31.6a3.7,3.7,0,0,0-2.59,1.26,2.73,2.73,0,0,0-.66,2.07l2.29,21.86a5,5,0,0,0,5.17,4.16l26,.25h0a4.44,4.44,0,0,0,4.67-4c.25-10,.38-19.3-.91-24.06a5.37,5.37,0,0,0-5.34-3.62c-4.75.06-13.28.78-20.14,1.37-3.28.28-6.38.54-8.59.69Z" transform="translate(-75.59 -61.94)"/><path class="cls-15" d="M591,465.75c5.47-.38,17.37-1.58,23-1.66a5.05,5.05,0,0,1,5,3.49c1.09,4,.95,12.05.76,19.45a4.34,4.34,0,0,1-4.58,4l-20.82-.2a4.81,4.81,0,0,1-4.92-4l-1.83-17.47A3.38,3.38,0,0,1,591,465.75Z" transform="translate(-75.59 -61.94)"/><g class="cls-33"><path class="cls-2" d="M643.26,472.52a2.84,2.84,0,0,0-3,3.77l1.39,5.28a5.49,5.49,0,0,0,5,3.87H774.12a3.9,3.9,0,0,0,3.91-4l0-1.72a4.24,4.24,0,0,0-4.09-4.09Z" transform="translate(-75.59 -61.94)"/></g><path class="cls-43" d="M592.14,469.17h0a4,4,0,0,1,5.52,1.5l5.13,9.21a1.28,1.28,0,0,0,2.29-.1l12.75-28.36a1.42,1.42,0,0,1,2.72.61,56,56,0,0,1-16.3,39s-7.64-3-13.79-16.48A4.2,4.2,0,0,1,592.14,469.17Z" transform="translate(-75.59 -61.94)"/><path class="cls-2" d="M618.54,550.92h-.07l-26.05-.25a7,7,0,0,1-7.14-6L583,522.86a4.7,4.7,0,0,1,1.12-3.57,5.69,5.69,0,0,1,4-2h0c2.2-.15,5.29-.41,8.56-.69,6.89-.59,15.46-1.32,20.29-1.38h.1a7.26,7.26,0,0,1,7.19,5.1c1.36,5,1.24,14.51,1,24.63C625.13,548.27,622.14,550.92,618.54,550.92Zm-30.31-31.61a3.7,3.7,0,0,0-2.59,1.26,2.74,2.74,0,0,0-.66,2.08l2.29,21.85a5,5,0,0,0,5.17,4.17l26,.25h0a4.44,4.44,0,0,0,4.67-4c.25-10,.38-19.3-.91-24.06a5.35,5.35,0,0,0-5.34-3.62c-4.75.06-13.28.79-20.14,1.37-3.28.28-6.38.54-8.59.69Z" transform="translate(-75.59 -61.94)"/><path class="cls-15" d="M591,521.57c5.47-.37,17.37-1.58,23-1.65a5,5,0,0,1,5,3.48c1.09,4,.95,12.05.76,19.46a4.33,4.33,0,0,1-4.58,4l-20.82-.2a4.8,4.8,0,0,1-4.92-4l-1.83-17.47A3.38,3.38,0,0,1,591,521.57Z" transform="translate(-75.59 -61.94)"/><g class="cls-33"><path class="cls-2" d="M643.26,528.34a2.85,2.85,0,0,0-3,3.78l1.39,5.28a5.49,5.49,0,0,0,5,3.86H774.12a3.9,3.9,0,0,0,3.91-4l0-1.72a4.25,4.25,0,0,0-4.09-4.1Z" transform="translate(-75.59 -61.94)"/></g><path class="cls-44" d="M592.14,525h0a4,4,0,0,1,5.52,1.5l5.13,9.21a1.28,1.28,0,0,0,2.29-.1l12.75-28.37a1.42,1.42,0,0,1,2.72.61,56,56,0,0,1-16.3,39s-7.64-3-13.79-16.48A4.19,4.19,0,0,1,592.14,525Z" transform="translate(-75.59 -61.94)"/><path class="cls-2" d="M618.54,606.74h-.07l-26.05-.25a7,7,0,0,1-7.14-6L583,578.68a4.71,4.71,0,0,1,1.12-3.57,5.73,5.73,0,0,1,4-2h0c2.2-.15,5.29-.41,8.56-.69,6.89-.59,15.46-1.32,20.29-1.38h.1a7.27,7.27,0,0,1,7.19,5.1c1.36,5,1.24,14.52,1,24.63C625.13,604.09,622.14,606.74,618.54,606.74Zm-30.31-31.6a3.7,3.7,0,0,0-2.59,1.26,2.72,2.72,0,0,0-.66,2.07l2.29,21.86a5,5,0,0,0,5.17,4.16l26,.25h0a4.44,4.44,0,0,0,4.67-4c.25-10,.38-19.3-.91-24a5.36,5.36,0,0,0-5.34-3.63c-4.75.06-13.28.79-20.14,1.37-3.28.28-6.38.55-8.59.7Z" transform="translate(-75.59 -61.94)"/><path class="cls-15" d="M591,577.39c5.47-.37,17.37-1.58,23-1.65a5,5,0,0,1,5,3.49c1.09,4,.95,12,.76,19.45a4.32,4.32,0,0,1-4.58,4l-20.82-.2a4.8,4.8,0,0,1-4.92-4l-1.83-17.46A3.38,3.38,0,0,1,591,577.39Z" transform="translate(-75.59 -61.94)"/><g class="cls-33"><path class="cls-2" d="M643.26,584.17a2.84,2.84,0,0,0-3,3.77l1.39,5.28a5.49,5.49,0,0,0,5,3.87H774.12a3.9,3.9,0,0,0,3.91-4l0-1.72a4.24,4.24,0,0,0-4.09-4.09Z" transform="translate(-75.59 -61.94)"/></g><path class="cls-45" d="M592.14,580.82h0a4,4,0,0,1,5.52,1.5l5.13,9.21a1.28,1.28,0,0,0,2.29-.1l12.75-28.37a1.42,1.42,0,0,1,2.72.62,56,56,0,0,1-16.3,39s-7.64-3-13.79-16.48A4.19,4.19,0,0,1,592.14,580.82Z" transform="translate(-75.59 -61.94)"/><path class="cls-2" d="M618.54,662.56h-.07l-26.05-.25a7,7,0,0,1-7.14-5.95L583,634.5a4.71,4.71,0,0,1,1.12-3.57,5.73,5.73,0,0,1,4-2h0c2.2-.14,5.29-.41,8.56-.69,6.89-.58,15.46-1.31,20.29-1.37h.1a7.26,7.26,0,0,1,7.19,5.1c1.36,5,1.24,14.51,1,24.63C625.13,659.91,622.14,662.56,618.54,662.56ZM588.23,631a3.7,3.7,0,0,0-2.59,1.26,2.73,2.73,0,0,0-.66,2.07l2.29,21.86a5,5,0,0,0,5.17,4.16l26,.25h0a4.44,4.44,0,0,0,4.67-4c.25-10,.38-19.3-.91-24.06A5.33,5.33,0,0,0,617,628.9c-4.75.06-13.28.78-20.14,1.37-3.28.28-6.38.54-8.59.69Z" transform="translate(-75.59 -61.94)"/><path class="cls-15" d="M591,633.22c5.47-.38,17.37-1.58,23-1.66a5.05,5.05,0,0,1,5,3.49c1.09,4,.95,12.05.76,19.45a4.34,4.34,0,0,1-4.58,4l-20.82-.2a4.81,4.81,0,0,1-4.92-4l-1.83-17.47A3.37,3.37,0,0,1,591,633.22Z" transform="translate(-75.59 -61.94)"/><g class="cls-33"><path class="cls-2" d="M643.26,640a2.84,2.84,0,0,0-3,3.77l1.39,5.28a5.49,5.49,0,0,0,5,3.87H774.12a3.9,3.9,0,0,0,3.91-4l0-1.72a4.24,4.24,0,0,0-4.09-4.09Z" transform="translate(-75.59 -61.94)"/></g><path class="cls-46" d="M592.14,636.64h0a4,4,0,0,1,5.52,1.5l5.13,9.21a1.28,1.28,0,0,0,2.29-.1l12.75-28.36a1.42,1.42,0,0,1,2.72.61,56,56,0,0,1-16.3,39s-7.64-3-13.79-16.48A4.2,4.2,0,0,1,592.14,636.64Z" transform="translate(-75.59 -61.94)"/><path class="cls-47" d="M621.91,72.3c-13.19-9.18-24.66-9-32.74-6.62a16.12,16.12,0,0,0-11.44,16.94l3.49,38,41.44,3.68S647.79,90.3,621.91,72.3ZM603.69,103A10.34,10.34,0,1,1,614,92.63,10.33,10.33,0,0,1,603.69,103Z" transform="translate(-75.59 -61.94)"/><path class="cls-2" d="M585.36,104.64a1,1,0,0,1-1-.91l-.55-6a1,1,0,1,1,2-.18l.55,6a1,1,0,0,1-.9,1.09Zm-1.09-11.86a1,1,0,0,1-1-.91l-.42-4.6a15.38,15.38,0,0,1,10.9-16.13,31,31,0,0,1,15.15-.62,1,1,0,1,1-.4,2,29,29,0,0,0-14.18.58,13.37,13.37,0,0,0-9.48,14l.43,4.6a1,1,0,0,1-.91,1.08Z" transform="translate(-75.59 -61.94)"/><path class="cls-48" d="M524.66,145.2V126.09a11.66,11.66,0,0,1,12.06-11.66L668.48,119a11.34,11.34,0,0,1,10.94,10.65l1.1,18.37Z" transform="translate(-75.59 -61.94)"/><path class="cls-2" d="M573.79,121.63h-5.67a1,1,0,0,1,0-2h5.67a1,1,0,0,1,0,2Z" transform="translate(-75.59 -61.94)"/><path class="cls-2" d="M531.79,139.2a1,1,0,0,1-1-1v-7.74a10.84,10.84,0,0,1,10.83-10.83h20.83a1,1,0,0,1,0,2H541.62a8.84,8.84,0,0,0-8.83,8.83v7.74A1,1,0,0,1,531.79,139.2Z" transform="translate(-75.59 -61.94)"/><path class="cls-49" d="M483.37,138.2H713.79a17,17,0,0,1,16.78,14.12l.19,1.13a14.62,14.62,0,0,1-14.41,17.12H480a9.51,9.51,0,0,1-9.5-10L471,150A12.41,12.41,0,0,1,483.37,138.2Z" transform="translate(-75.59 -61.94)"/><path class="cls-50" d="M304,453c-5,.43-13.56,1.13-20.34,1.42-4.08.18-6.42-.21-7.78-.76,0,.16,0,.3,0,.43a1.4,1.4,0,0,0,1.33,1.33,240,240,0,0,0,26.63,0,1,1,0,0,0,.81-1.5A8.23,8.23,0,0,0,304,453Z" transform="translate(-75.59 -61.94)"/><path class="cls-51" d="M283.67,454.42c6.78-.29,15.38-1,20.34-1.42-4.87-6-20.34-10-20.34-10H279.3a18.41,18.41,0,0,0-3.41,10.67C277.25,454.21,279.59,454.6,283.67,454.42Z" transform="translate(-75.59 -61.94)"/><path class="cls-52" d="M278.57,435.86,279,444a1.86,1.86,0,0,0,1.58,1.74,7.28,7.28,0,0,0,3.28-.27,2.19,2.19,0,0,0,1.47-1.68l1.41-7.88Z" transform="translate(-75.59 -61.94)"/><path class="cls-53" d="M221.83,454.36a3.92,3.92,0,0,1-3.53-2.61v0a2.8,2.8,0,0,0,1.88,3.18,12.38,12.38,0,0,0,5.22.82,5.17,5.17,0,0,0,3.9-1.81h0C227.69,454.77,225.41,454.86,221.83,454.36Z" transform="translate(-75.59 -61.94)"/><path class="cls-54" d="M232,435.81h-3.6c-5.49-.11-8.93,11.46-10.06,15.94a3.92,3.92,0,0,0,3.53,2.61c3.58.5,5.86.41,7.48-.39,3-3.9,4.43-9.62,5.14-13A4.56,4.56,0,0,0,232,435.81Z" transform="translate(-75.59 -61.94)"/><path class="cls-55" d="M228.82,428.3l-2,8a2.16,2.16,0,0,0,1.13,2.45,7.73,7.73,0,0,0,4.14,1,1.79,1.79,0,0,0,1.47-1.2l2.94-8.37Z" transform="translate(-75.59 -61.94)"/><path class="cls-56" d="M226.44,430.6c2.49,2.21,10.58,2.5,10.58,2.5,29.16-70,41.09-79.92,41.09-79.92-4.21,26.41-.68,84.89-.68,84.89,4.81,2.12,11,0,11,0a451.32,451.32,0,0,1,14.89-110.69c-19.7-.44-30.18-7.19-33.61-9.89C253.3,344,226.44,430.6,226.44,430.6Z" transform="translate(-75.59 -61.94)"/><path class="cls-57" d="M274.73,237c-3.73,18.61-2.39,51.91-1.52,67.1.25,4.27-2.73,10.19-5.14,14.23a1.27,1.27,0,0,0,.51,1.78c4,2.07,17.7,8.5,33.54,9.3a2.27,2.27,0,0,0,2.27-1.69c11.74-43.86,25.39-71.89,25.39-71.89C314.72,231.78,274.73,237,274.73,237Z" transform="translate(-75.59 -61.94)"/><path class="cls-58" d="M280.1,351.52a1,1,0,0,1-.49-.14.93.93,0,0,1-.31-1.28,29.38,29.38,0,0,1,11.56-10,.94.94,0,0,1,1.25.44.93.93,0,0,1-.44,1.24,27.9,27.9,0,0,0-10.77,9.33A1,1,0,0,1,280.1,351.52Z" transform="translate(-75.59 -61.94)"/><path class="cls-59" d="M251.33,290.4c1.2,8.67,4.74,18.13,11.82,28.17l2.69-2.2a83.3,83.3,0,0,1-1.34-26.91C260.13,288.6,255,289.48,251.33,290.4Z" transform="translate(-75.59 -61.94)"/><path class="cls-60" d="M278.9,260l-4.17-23s-27.84,21.28-23.4,53.4c3.64-.92,8.8-1.8,13.17-.94C265.78,279.15,269.58,268,278.9,260Z" transform="translate(-75.59 -61.94)"/><path class="cls-61" d="M329.78,255.83,319,279c1.74,14,9.25,20,17.34,22.33A48.86,48.86,0,0,1,340,286.23C329.64,275.56,329.78,255.83,329.78,255.83Z" transform="translate(-75.59 -61.94)"/><path class="cls-62" d="M340,286.23a48.86,48.86,0,0,0-3.61,15.07c21.59,8.38,27.3-7.87,27.3-7.87l-4-.7C350.67,293.68,344.38,290.77,340,286.23Z" transform="translate(-75.59 -61.94)"/><path class="cls-63" d="M319.88,227.26l-5.19,19.07a3.71,3.71,0,0,1-5,2.47,73.21,73.21,0,0,1-7.48-3.42,5,5,0,0,1-1.76-7.18l10.78-16.08Z" transform="translate(-75.59 -61.94)"/><path class="cls-64" d="M373.57,280.67,240.64,329.05a10.17,10.17,0,0,0-5.78,13.78l.4.89a9.46,9.46,0,0,0,12.58,4.67l129.08-59.71Z" transform="translate(-75.59 -61.94)"/><ellipse class="cls-65" cx="359.07" cy="189.63" rx="65.62" ry="64.44"/><path class="cls-66" d="M434.67,179.87c-40.33,0-73,32.1-73,71.7s32.69,71.7,73,71.7,73-32.1,73-71.7S475,179.87,434.67,179.87Zm0,132.87c-34.41,0-62.29-27.39-62.29-61.17s27.88-61.17,62.29-61.17S497,217.79,497,251.57,469.07,312.74,434.67,312.74Z" transform="translate(-75.59 -61.94)"/><path class="cls-2" d="M367.2,260.46a.49.49,0,0,1-.49-.43c-.22-1.7-.37-3.43-.46-5.15a.5.5,0,0,1,.48-.52.47.47,0,0,1,.52.47c.08,1.69.23,3.4.45,5.07a.51.51,0,0,1-.43.56Zm.5-20h-.09a.5.5,0,0,1-.4-.58,66,66,0,0,1,3.94-13.49c10.53-25.54,35.46-42,63.52-42a69.16,69.16,0,0,1,36.78,10.51.51.51,0,0,1,.16.69.5.5,0,0,1-.69.16,68.18,68.18,0,0,0-36.25-10.36c-27.65,0-52.22,16.26-62.59,41.42h0A65.42,65.42,0,0,0,368.19,240,.49.49,0,0,1,367.7,240.41Z" transform="translate(-75.59 -61.94)"/><path class="cls-67" d="M331.23,212.77c0,.33-4.33,21.76-4.33,21.76l-12.18-2.75,1.12-20.94S330.44,207.29,331.23,212.77Z" transform="translate(-75.59 -61.94)"/><path class="cls-68" d="M318.58,215.51l-1.45,11a1.48,1.48,0,0,0,0,.42c.12.86.76,3.79,3.72,2.95,2.68-.76,5.14-1.41,6.84-.89a1.54,1.54,0,0,1,1.06,1.79,67.31,67.31,0,0,1-2.81,10,1.54,1.54,0,0,1-1.87.92,50.51,50.51,0,0,1-10.74-4.4,1.52,1.52,0,0,1-.75-1.39c.11-2.77.44-11.19.17-13.55s-3-3.54-4.16-4a1.54,1.54,0,0,1-.85-.85c-.54-1.37-1.3-4.54,2.7-5.84a1.54,1.54,0,0,0,1-2c-.59-1.65-.84-4.17,2.25-5.55a5.66,5.66,0,0,1,6.76,1.63,1.55,1.55,0,0,0,2,.23,1.2,1.2,0,0,1,1.39.05,1.53,1.53,0,0,0,2.16-.66,4.62,4.62,0,0,1,5.36-2.67c5.46.93,6.08,7,4.64,10.53s-7.3,2.2-10.24.41c-2.24-1.36-5.14.06-6.4.82A1.57,1.57,0,0,0,318.58,215.51Z" transform="translate(-75.59 -61.94)"/><path class="cls-69" d="M312.26,226.31s2.24-6.29-.07-7.83-5.72-.74-5,3.82C308.16,228,312.26,226.31,312.26,226.31Z" transform="translate(-75.59 -61.94)"/><path class="cls-70" d="M264.73,316l12.57-1,5.44,5s-1.29,1.77-5.31.75a57.86,57.86,0,0,0-9.54-1.27s-5.56,2.5-5.62-2.18Z" transform="translate(-75.59 -61.94)"/><path class="cls-71" d="M362.07,296.41c1.09.85,4.81-.93,7.09-2.15a2.63,2.63,0,0,0,1.27-3.1c-.55-1.73-1.46-4-2.59-4.24C366,286.45,357.59,292.91,362.07,296.41Z" transform="translate(-75.59 -61.94)"/><path class="cls-2" d="M243.26,346.54a.45.45,0,0,1-.16,0c-5.2-1.8-6.41-4.87-6.51-7.13a7.93,7.93,0,0,1,5.17-7.63l16-6.22a.49.49,0,0,1,.64.28.5.5,0,0,1-.28.65l-16,6.22a6.94,6.94,0,0,0-4.53,6.66c.13,2.83,2.09,4.93,5.84,6.22a.51.51,0,0,1-.17,1Z" transform="translate(-75.59 -61.94)"/><path class="cls-2" d="M262.82,324.58a.5.5,0,0,1-.18-1l2.06-.81a.5.5,0,0,1,.65.29.51.51,0,0,1-.28.65l-2.07.8A.39.39,0,0,1,262.82,324.58Z" transform="translate(-75.59 -61.94)"/><path class="cls-72" d="M316.9,741.21a2.34,2.34,0,0,1-2.34-2.34V459.81a2.34,2.34,0,0,1,4.67,0V738.87A2.33,2.33,0,0,1,316.9,741.21Z" transform="translate(-75.59 -61.94)"/><path class="cls-73" d="M253.63,741.21a2.34,2.34,0,0,1-2.34-2.34V459.81a2.34,2.34,0,0,1,4.67,0V738.87A2.33,2.33,0,0,1,253.63,741.21Z" transform="translate(-75.59 -61.94)"/><path class="cls-74" d="M98.19,743a2.22,2.22,0,0,1-.91-.19A2.33,2.33,0,0,1,96,739.73L215.43,458.9a2.34,2.34,0,0,1,4.3,1.83L100.34,741.56A2.35,2.35,0,0,1,98.19,743Z" transform="translate(-75.59 -61.94)"/><path class="cls-75" d="M171.93,743a2.29,2.29,0,0,1-.91-.19,2.32,2.32,0,0,1-1.23-3.06L289.17,458.9a2.34,2.34,0,0,1,4.3,1.83L174.08,741.56A2.34,2.34,0,0,1,171.93,743Z" transform="translate(-75.59 -61.94)"/><path class="cls-76" d="M320.52,462.38H211.16a3.29,3.29,0,0,1-3.29-3.29h0a3.29,3.29,0,0,1,3.29-3.29H320.52a3.29,3.29,0,0,1,3.29,3.29h0A3.29,3.29,0,0,1,320.52,462.38Z" transform="translate(-75.59 -61.94)"/><path class="cls-77" d="M273.28,505.09h-74a2.34,2.34,0,0,1,0-4.67h74a2.34,2.34,0,1,1,0,4.67Z" transform="translate(-75.59 -61.94)"/><rect class="cls-78" x="101.03" y="491.59" width="73.96" height="4.67"/><rect class="cls-79" x="79.06" y="544.71" width="73.96" height="4.67"/><path class="cls-80" d="M205.58,664.42h-74a2.33,2.33,0,1,1,0-4.66h74a2.33,2.33,0,1,1,0,4.66Z" transform="translate(-75.59 -61.94)"/><path class="cls-81" d="M183.31,717.54h-74a2.34,2.34,0,0,1,0-4.67h74a2.34,2.34,0,0,1,0,4.67Z" transform="translate(-75.59 -61.94)"/><path class="cls-82" d="M440.44,603.6c-.13.24-8.13,6.13-8.13,6.13s1.76,12.65,8.94,17.64c7.89,5.49,19-4.52,19-4.52s8.87,2.11,13.59-16.35c1.08-4.24-5.16-4.6-12.7-3.82C451.45,603.69,440.44,603.6,440.44,603.6Z" transform="translate(-75.59 -61.94)"/><path class="cls-83" d="M425.48,646.74A33.83,33.83,0,0,1,435.74,642c1.38-.38,8.82,1.78,13.42,1.68,6.32-.15,12.75-3,17.95-1.72s9.41,3,11.85,4.71c7.31,5.2,11.61,14.9,14.23,24.51A33.5,33.5,0,0,1,482,678.5l-1.15,46.7-27.62,14.14L421.7,723.51l1.13-45.65s-10-4.66-10.75-6.35S416.65,652.81,425.48,646.74Z" transform="translate(-75.59 -61.94)"/><path class="cls-84" d="M412.55,671.3s-13.42,37.19,17.17,52.48c6.36-.85,3.91-11.39,3.91-11.39s-13.29-2.95-9.3-34C420.66,675.4,412.55,671.3,412.55,671.3Z" transform="translate(-75.59 -61.94)"/><path class="cls-85" d="M492.54,671.3s9.23,38.82-17.17,52.48c-6.36-.85-3.91-11.39-3.91-11.39s10.71-5.28,9.3-34C484.43,675.4,492.54,671.3,492.54,671.3Z" transform="translate(-75.59 -61.94)"/><rect class="cls-86" x="345.74" y="623.55" width="60.56" height="40.9" rx="8.33"/><path class="cls-87" d="M508.46,738.52c-6.93-1.6-22.95-.74-22.95-.74l-.65,1.76-1.08,8.78s15.26,2.75,22.78,2.74a7,7,0,0,0,2.11-.32,8.08,8.08,0,0,0,.66-.65C512.52,746.61,511.6,741.49,508.46,738.52Z" transform="translate(-75.59 -61.94)"/><path class="cls-88" d="M509.15,738.69l-.69-.17c3.14,3,4.06,8.09.87,11.57a8.08,8.08,0,0,1-.66.65C514.31,749,515,740.33,509.15,738.69Z" transform="translate(-75.59 -61.94)"/><path class="cls-89" d="M480.91,737.29l2.71.11a5.2,5.2,0,0,1,3.81,2,6.43,6.43,0,0,1,1.4,4.4,5,5,0,0,1-1.47,3.35,4.12,4.12,0,0,1-3.17,1.2L480,748Z" transform="translate(-75.59 -61.94)"/><path class="cls-90" d="M495.44,746.6a.39.39,0,0,1-.38-.32,15.09,15.09,0,0,0-3.42-5.59.49.49,0,0,1,0-.63.38.38,0,0,1,.57,0,15.89,15.89,0,0,1,3.64,6,.46.46,0,0,1-.28.55Z" transform="translate(-75.59 -61.94)"/><path class="cls-91" d="M491.77,746.38l-.11,0a.47.47,0,0,1-.27-.56c.91-3.23,4.33-5.81,4.47-5.91a.37.37,0,0,1,.56.12.48.48,0,0,1-.11.62s-3.33,2.51-4.15,5.43A.4.4,0,0,1,491.77,746.38Z" transform="translate(-75.59 -61.94)"/><path class="cls-92" d="M502.8,747a.43.43,0,0,1-.39-.35c-.57-2.81-3.14-5.74-3.16-5.77a.47.47,0,0,1,0-.63.38.38,0,0,1,.57,0,16.13,16.13,0,0,1,3.38,6.19.45.45,0,0,1-.31.53Z" transform="translate(-75.59 -61.94)"/><path class="cls-93" d="M499.15,746.61a.35.35,0,0,1-.14,0,.46.46,0,0,1-.24-.57c1.05-3.17,4.58-5.56,4.73-5.66a.38.38,0,0,1,.55.15.48.48,0,0,1-.14.61s-3.43,2.33-4.38,5.21A.41.41,0,0,1,499.15,746.61Z" transform="translate(-75.59 -61.94)"/><path class="cls-94" d="M389.7,737.67c7-1.38,23,0,23,0l.61,1.79.86,8.8s-15.32,2.28-22.84,2a7.19,7.19,0,0,1-2.1-.38,8.25,8.25,0,0,1-.65-.67C385.44,745.64,386.49,740.55,389.7,737.67Z" transform="translate(-75.59 -61.94)"/><path class="cls-95" d="M389,737.83l.69-.16c-3.21,2.88-4.26,8-1.16,11.55a8.25,8.25,0,0,0,.65.67C383.59,748,383.14,739.28,389,737.83Z" transform="translate(-75.59 -61.94)"/><path class="cls-96" d="M417.27,737.29l-2.71,0a5.22,5.22,0,0,0-3.86,1.85,6.44,6.44,0,0,0-1.51,4.36,5.11,5.11,0,0,0,1.39,3.39,4.12,4.12,0,0,0,3.14,1.3l4.15-.17Z" transform="translate(-75.59 -61.94)"/><path class="cls-97" d="M402.52,746.16a.42.42,0,0,0,.39-.32c.76-2.75,3.52-5.45,3.55-5.48a.49.49,0,0,0,0-.63.37.37,0,0,0-.57,0,15.59,15.59,0,0,0-3.79,5.89.46.46,0,0,0,.27.56Z" transform="translate(-75.59 -61.94)"/><path class="cls-98" d="M406.19,746h.11a.45.45,0,0,0,.28-.55c-.82-3.26-4.18-5.94-4.32-6.05a.38.38,0,0,0-.56.1.47.47,0,0,0,.09.62s3.27,2.62,4,5.57A.4.4,0,0,0,406.19,746Z" transform="translate(-75.59 -61.94)"/><path class="cls-99" d="M395.15,746.36a.41.41,0,0,0,.4-.33c.64-2.79,3.27-5.64,3.3-5.67a.47.47,0,0,0,0-.63.38.38,0,0,0-.57,0,15.86,15.86,0,0,0-3.52,6.09.44.44,0,0,0,.29.54Z" transform="translate(-75.59 -61.94)"/><path class="cls-100" d="M398.81,746.05l.14,0a.46.46,0,0,0,.25-.57c-1-3.2-4.44-5.7-4.58-5.8a.38.38,0,0,0-.56.13.49.49,0,0,0,.12.62s3.38,2.43,4.26,5.34A.39.39,0,0,0,398.81,746.05Z" transform="translate(-75.59 -61.94)"/><path class="cls-101" d="M510.4,711c-3.14-7.23-10.83-8.41-17.37-5-.12.15-41.56,21.39-78.1,30.7a39.63,39.63,0,0,1,1.7,10.43c0,.78,0,1.55,0,2.31,28-1.44,58.44-10.78,84.58-19C509.27,727.82,513.89,719,510.4,711Z" transform="translate(-75.59 -61.94)"/><path class="cls-102" d="M481.11,747.67a24.1,24.1,0,0,1,2.36-11.29l.15-.47c-2.08-.65-4.78-1.52-8.32-2.73A398.58,398.58,0,0,1,410.66,705c-7.34-4-15.69-1.32-18,7.37-2.09,7.75,2.51,14.37,9.5,16.7,20.92,7,10,5,16.86,7.22,18.34,5.67,41.17,10.84,62.17,12.25C481.14,748.26,481.12,748,481.11,747.67Z" transform="translate(-75.59 -61.94)"/><path class="cls-103" d="M435.74,642a16,16,0,0,0,16.34,11.84c13.8-.25,15-11.88,15-11.88l-9-1.93-.76-10-13.56,1-.25,9.54Z" transform="translate(-75.59 -61.94)"/><path class="cls-104" d="M445.69,601.49s-15.54,30.1,2.89,37.41c13,5.15,21.16-20,18.72-26.8-3.76-10.53-6.23-9.28-6.23-9.28Z" transform="translate(-75.59 -61.94)"/><path class="cls-105" d="M471,598.75c7.68,2.11,1.12,18.76-10.44,14.83s-16.1-3.88-17.9-.71-2.19,14.44-6.1,8.87c-4.28-6.1-6.67-18.36-1.42-22.32,4.7-3.53,5.79-9,11.42-8.81,7.48.25,13.26-3.07,16.63-.68C467.11,592.68,465.4,597.2,471,598.75Z" transform="translate(-75.59 -61.94)"/><path class="cls-106" d="M442,615.46s-3.32-3.57-3.85.73,1.18,9.83,3.17,6.8S442,615.46,442,615.46Z" transform="translate(-75.59 -61.94)"/><path class="cls-107" d="M455.19,696.57a3.7,3.7,0,0,1-3,4.46,4,4,0,0,1-4.51-3.35c-.32-2.17.67-4.33,2.84-4.65A4.28,4.28,0,0,1,455.19,696.57Z" transform="translate(-75.59 -61.94)"/><path class="cls-108" d="M946,407.66l2.76-1.16h0a.79.79,0,0,1,1,.42.79.79,0,0,1-.42,1h0l-2.81,1.11a.74.74,0,0,1-1-.42.76.76,0,0,1,.41-1Z" transform="translate(-75.59 -61.94)"/><path class="cls-108" d="M955.15,403.63l2.69-1.31h0a.88.88,0,0,1,.77,1.58h0l-2.74,1.26a.85.85,0,0,1-.72-1.54Z" transform="translate(-75.59 -61.94)"/><path class="cls-108" d="M964,399.12l2.61-1.45h0a1,1,0,0,1,.94,1.7h0l-2.66,1.41a.94.94,0,0,1-.9-1.66Z" transform="translate(-75.59 -61.94)"/><path class="cls-108" d="M972.63,394.15l2.53-1.58h0a1,1,0,0,1,1.11,1.77h0l-2.59,1.56a1,1,0,0,1-1.4-.34,1,1,0,0,1,.33-1.4Z" transform="translate(-75.59 -61.94)"/><path class="cls-108" d="M981,388.71l2.43-1.72h0a1.12,1.12,0,1,1,1.29,1.82h0l-2.49,1.71a1.09,1.09,0,0,1-1.25-1.79Z" transform="translate(-75.59 -61.94)"/><path class="cls-108" d="M988.94,382.81l2.32-1.87h0a1.18,1.18,0,1,1,1.48,1.85h0l-2.38,1.86a1.17,1.17,0,0,1-1.45-1.83Z" transform="translate(-75.59 -61.94)"/><path class="cls-108" d="M996.54,376.42l2.2-2v0a1.26,1.26,0,0,1,1.7,1.86h0l-2.26,2a1.24,1.24,0,0,1-1.65-1.84Z" transform="translate(-75.59 -61.94)"/><path class="cls-108" d="M1003.7,369.57l2.06-2.15h0a1.32,1.32,0,1,1,1.91,1.83h0l-2.12,2.16a1.31,1.31,0,0,1-1.85,0,1.29,1.29,0,0,1,0-1.83Z" transform="translate(-75.59 -61.94)"/><path class="cls-108" d="M1010.38,362.25l1.9-2.28,0,0a1.4,1.4,0,0,1,2.15,1.78v0l-2,2.3a1.38,1.38,0,0,1-2.11-1.77Z" transform="translate(-75.59 -61.94)"/><path class="cls-108" d="M1016.51,354.48l1.72-2.41,0,0a1.47,1.47,0,0,1,2.39,1.7v0l-1.8,2.44a1.44,1.44,0,0,1-2.34-1.69Z" transform="translate(-75.59 -61.94)"/><path class="cls-108" d="M1022,346.29l1.53-2.54,0,0a1.52,1.52,0,0,1,2.08-.51,1.5,1.5,0,0,1,.51,2.08h0l-1.6,2.59a1.5,1.5,0,0,1-2.56-1.57Z" transform="translate(-75.59 -61.94)"/><path class="cls-108" d="M1026.91,337.7l1.32-2.65,0,0a1.55,1.55,0,1,1,2.78,1.39h0l-1.38,2.7a1.54,1.54,0,0,1-2.76-1.38Z" transform="translate(-75.59 -61.94)"/><path class="cls-108" d="M1031,328.75l1.08-2.75v0a1.6,1.6,0,0,1,3,1.16h0L1034,330a1.59,1.59,0,0,1-3-1.17Z" transform="translate(-75.59 -61.94)"/><path class="cls-108" d="M1034.33,319.47l.81-2.84,0-.05a1.64,1.64,0,0,1,3.15.91v0l-.87,2.91a1.63,1.63,0,0,1-3.13-.91Z" transform="translate(-75.59 -61.94)"/><path class="cls-108" d="M1036.75,309.92l.56-2.9v0a1.69,1.69,0,0,1,3.31.64v0l-.6,3a1.67,1.67,0,0,1-3.28-.64Z" transform="translate(-75.59 -61.94)"/><path class="cls-108" d="M1038.31,300.2l.3-2.94v-.05a1.73,1.73,0,0,1,3.44.35h0l-.34,3a1.71,1.71,0,0,1-3.41-.36Z" transform="translate(-75.59 -61.94)"/><path class="cls-108" d="M1039,290.38l0-2.95v-.05a1.77,1.77,0,1,1,3.54,0h0l-.06,3.05a1.76,1.76,0,0,1-3.51-.05Z" transform="translate(-75.59 -61.94)"/><path class="cls-108" d="M1038.78,280.55l-.24-2.94v-.05a1.82,1.82,0,1,1,3.62-.3v0l.22,3a1.8,1.8,0,0,1-3.59.28Z" transform="translate(-75.59 -61.94)"/><path class="cls-108" d="M1037.66,270.79l-.52-2.9v-.06a1.85,1.85,0,0,1,3.65-.65v0l.51,3a1.84,1.84,0,0,1-3.62.63Z" transform="translate(-75.59 -61.94)"/><path class="cls-108" d="M1035.6,261.19l-.81-2.83v-.05a1.9,1.9,0,1,1,3.65-1h0l.81,3a1.89,1.89,0,0,1-3.63,1Z" transform="translate(-75.59 -61.94)"/><path class="cls-108" d="M1032.58,251.87l-1.1-2.72,0-.06a1.94,1.94,0,1,1,3.6-1.45v0l1.12,2.85a1.93,1.93,0,0,1-3.58,1.42Z" transform="translate(-75.59 -61.94)"/><path class="cls-108" d="M1028.58,242.94l-1.39-2.58,0-.06a2,2,0,0,1,3.49-1.87h0l1.44,2.71a2,2,0,0,1-3.48,1.85Z" transform="translate(-75.59 -61.94)"/><path class="cls-108" d="M1023.63,234.53l-1.68-2.41,0-.06a2,2,0,0,1,3.27-2.27h0l1.75,2.53a2,2,0,0,1-3.27,2.26Z" transform="translate(-75.59 -61.94)"/><path class="cls-108" d="M1017.72,226.77c-.65-.73-1.28-1.47-2-2.19a2,2,0,1,1,2.93-2.73h0c.7.75,1.37,1.53,2,2.3a2,2,0,0,1-3,2.65Z" transform="translate(-75.59 -61.94)"/><path class="cls-108" d="M1010.91,219.78l-2.2-1.93-.05,0a2,2,0,0,1,2.66-3h0l2.31,2a2,2,0,0,1-2.67,3Z" transform="translate(-75.59 -61.94)"/><path class="cls-108" d="M1003.32,213.66,1000.9,212l0,0a2,2,0,1,1,2.3-3.34h0l2.52,1.75a2,2,0,0,1-2.31,3.33Z" transform="translate(-75.59 -61.94)"/><path class="cls-108" d="M995.06,208.43,992.48,207l-.06,0a2,2,0,0,1,1.94-3.61h0l2.7,1.46a2,2,0,0,1-1.94,3.6Z" transform="translate(-75.59 -61.94)"/><path class="cls-108" d="M986.28,204.12,983.56,203l0,0a2.06,2.06,0,1,1,1.56-3.81h0l2.83,1.17a2.05,2.05,0,0,1-1.56,3.8Z" transform="translate(-75.59 -61.94)"/><path class="cls-108" d="M977.1,200.74l-2.82-.84-.06,0a2.07,2.07,0,1,1,1.18-4h0l2.94.87a2.07,2.07,0,1,1-1.19,4Z" transform="translate(-75.59 -61.94)"/><path class="cls-108" d="M967.62,198.28l-2.89-.55-.06,0a2.09,2.09,0,1,1,.79-4.1h0l3,.59a2.08,2.08,0,1,1-.8,4.09Z" transform="translate(-75.59 -61.94)"/><path class="cls-108" d="M957.93,196.75l-2.93-.27h-.06a2.1,2.1,0,0,1,.4-4.19h0l3,.3a2.1,2.1,0,0,1-.41,4.18Z" transform="translate(-75.59 -61.94)"/><path class="cls-108" d="M948.15,196.16h-3a2.12,2.12,0,1,1,0-4.23h3.07a2.12,2.12,0,0,1,0,4.23Z" transform="translate(-75.59 -61.94)"/><path class="cls-108" d="M938.36,196.5l-2.93.29h-.06a2.13,2.13,0,1,1-.41-4.24h0l3-.29a2.12,2.12,0,1,1,.41,4.23Z" transform="translate(-75.59 -61.94)"/><path class="cls-108" d="M928.65,197.79l-2.88.56h-.06a2.14,2.14,0,1,1-.82-4.2h0l3-.57a2.14,2.14,0,1,1,.82,4.2Z" transform="translate(-75.59 -61.94)"/><path class="cls-108" d="M919.09,200l-2.82.82-.06,0a2.16,2.16,0,0,1-1.2-4.15h0l2.93-.84a2.15,2.15,0,1,1,1.19,4.14Z" transform="translate(-75.59 -61.94)"/><path class="cls-108" d="M909.76,203,907,204l0,0A2.17,2.17,0,1,1,905.4,200h0l2.86-1.09A2.17,2.17,0,0,1,909.8,203Z" transform="translate(-75.59 -61.94)"/><path class="cls-108" d="M900.69,206.77,898,208.05l0,0a2.18,2.18,0,1,1-1.89-3.94h0l2.76-1.32a2.18,2.18,0,0,1,1.88,3.94Z" transform="translate(-75.59 -61.94)"/><path class="cls-108" d="M892,211.27l-2.56,1.48,0,0a2.2,2.2,0,1,1-2.2-3.8l2.64-1.53a2.2,2.2,0,0,1,2.2,3.81h0Z" transform="translate(-75.59 -61.94)"/><path class="cls-108" d="M883.57,216.4l-2.44,1.66,0,0a2.19,2.19,0,0,1-3-.58,2.17,2.17,0,0,1,.58-3l2.51-1.72a2.18,2.18,0,1,1,2.46,3.6h0Z" transform="translate(-75.59 -61.94)"/><path class="cls-108" d="M875.57,222.13,873.25,224l0,0a2.16,2.16,0,0,1-2.68-3.39l2.39-1.89a2.16,2.16,0,1,1,2.69,3.39h0Z" transform="translate(-75.59 -61.94)"/><path class="cls-108" d="M868,228.42l-2.19,2,0,0a2.15,2.15,0,0,1-2.89-3.18l2.25-2a2.15,2.15,0,1,1,2.9,3.17h0Z" transform="translate(-75.59 -61.94)"/><path class="cls-108" d="M860.84,235.21l-2.05,2.13,0,0a2.13,2.13,0,0,1-3.08-2.94l2.11-2.21a2.14,2.14,0,1,1,3.08,3h0Z" transform="translate(-75.59 -61.94)"/><path class="cls-108" d="M854.17,242.47l-1.91,2.27,0,0a2.12,2.12,0,0,1-3.24-2.72l2-2.33a2.12,2.12,0,1,1,3.25,2.72h0Z" transform="translate(-75.59 -61.94)"/><path class="cls-108" d="M848,250.16l-1.77,2.38,0,0a2.1,2.1,0,0,1-3.37-2.5l1.81-2.44a2.11,2.11,0,0,1,3.38,2.51h0Z" transform="translate(-75.59 -61.94)"/><path class="cls-108" d="M842.21,258.2l-1.65,2.47,0,0a2.08,2.08,0,0,1-3.46-2.31l1.68-2.52a2.08,2.08,0,1,1,3.47,2.31h0Z" transform="translate(-75.59 -61.94)"/><path class="cls-108" d="M836.83,266.52l-1.54,2.54,0,0a2.06,2.06,0,0,1-3.53-2.14l1.57-2.59a2.07,2.07,0,1,1,3.54,2.14h0Z" transform="translate(-75.59 -61.94)"/><path class="cls-108" d="M831.78,275.06l-1.46,2.6v0a2.05,2.05,0,0,1-3.58-2l1.48-2.63a2.05,2.05,0,1,1,3.58,2h0Z" transform="translate(-75.59 -61.94)"/><path class="cls-108" d="M827,283.77l-1.4,2.64v0a2,2,0,0,1-3.59-1.9l1.4-2.67a2,2,0,1,1,3.61,1.9h0Z" transform="translate(-75.59 -61.94)"/><path class="cls-108" d="M822.38,292.61,821,295.28h0a2,2,0,0,1-3.6-1.82l1.36-2.68a2,2,0,1,1,3.61,1.82h0Z" transform="translate(-75.59 -61.94)"/><path class="cls-108" d="M817.9,301.52l-1.34,2.69a2,2,0,1,1-3.59-1.77l1.33-2.7a2,2,0,0,1,3.6,1.78Z" transform="translate(-75.59 -61.94)"/><path class="cls-108" d="M813.46,310.48l-1.34,2.7a2,2,0,0,1-3.56-1.76l1.33-2.7a2,2,0,1,1,3.57,1.76Z" transform="translate(-75.59 -61.94)"/><path class="cls-108" d="M809,319.45l-1.36,2.69a2,2,0,1,1-3.51-1.78h0l1.34-2.68h0a2,2,0,1,1,3.53,1.76Z" transform="translate(-75.59 -61.94)"/><path class="cls-108" d="M804.41,328.37,803,331a1.92,1.92,0,0,1-3.41-1.78h0l1.37-2.66h0a1.94,1.94,0,0,1,3.44,1.78Z" transform="translate(-75.59 -61.94)"/><path class="cls-108" d="M799.64,337.22l-1.47,2.63a1.87,1.87,0,0,1-3.28-1.81v0l1.43-2.61v0a1.89,1.89,0,0,1,3.31,1.81Z" transform="translate(-75.59 -61.94)"/><path class="cls-108" d="M794.62,345.94l-1.57,2.58a1.83,1.83,0,0,1-3.13-1.88v0l1.53-2.56v0a1.84,1.84,0,1,1,3.16,1.89Z" transform="translate(-75.59 -61.94)"/><path class="cls-108" d="M789.25,354.47,787.56,357a1.78,1.78,0,0,1-3-2v0l1.64-2.48v0a1.79,1.79,0,1,1,3,2Z" transform="translate(-75.59 -61.94)"/><path class="cls-108" d="M783.5,362.75l-1.81,2.43a1.73,1.73,0,0,1-2.78-2.05v0l1.75-2.4,0,0a1.73,1.73,0,0,1,2.43-.39,1.75,1.75,0,0,1,.39,2.44Z" transform="translate(-75.59 -61.94)"/><path class="cls-108" d="M777.33,370.74l-1.93,2.33a1.68,1.68,0,0,1-2.6-2.13l0,0,1.88-2.3v0a1.7,1.7,0,1,1,2.64,2.14Z" transform="translate(-75.59 -61.94)"/><path class="cls-108" d="M770.72,378.38l-2.08,2.21a1.63,1.63,0,0,1-2.39-2.23l0,0,2-2.18,0,0a1.65,1.65,0,0,1,2.42,2.23Z" transform="translate(-75.59 -61.94)"/><path class="cls-108" d="M763.62,385.57l-2.23,2.06a1.58,1.58,0,0,1-2.16-2.32l0,0,2.16-2,0,0a1.6,1.6,0,1,1,2.19,2.33Z" transform="translate(-75.59 -61.94)"/><path class="cls-108" d="M756,392.24l-2.39,1.87a1.54,1.54,0,0,1-1.91-2.41l0,0,2.31-1.85,0,0a1.55,1.55,0,0,1,1.94,2.43Z" transform="translate(-75.59 -61.94)"/><path class="cls-108" d="M747.84,398.24l-2.56,1.66a1.49,1.49,0,0,1-1.63-2.49l0,0,2.46-1.63,0,0a1.5,1.5,0,0,1,1.66,2.51Z" transform="translate(-75.59 -61.94)"/><path class="cls-108" d="M739.14,403.46l-2.72,1.38a1.42,1.42,0,0,1-1.31-2.53l0,0,2.61-1.38,0,0a1.44,1.44,0,0,1,2,.6,1.46,1.46,0,0,1-.6,2Z" transform="translate(-75.59 -61.94)"/><path class="cls-108" d="M729.92,407.72l-2.85,1.07a1.35,1.35,0,0,1-1-2.51l0,0,2.74-1.08.05,0a1.37,1.37,0,0,1,1,2.55Z" transform="translate(-75.59 -61.94)"/><path class="cls-108" d="M720.29,410.91c-1,.24-2,.5-3,.73a1.27,1.27,0,0,1-.6-2.46h0c1-.24,1.9-.51,2.85-.76h0a1.28,1.28,0,0,1,1.57.92,1.27,1.27,0,0,1-.91,1.57Z" transform="translate(-75.59 -61.94)"/><path class="cls-108" d="M710.32,412.9l-3.05.3a1.19,1.19,0,0,1-.25-2.36h.06l2.92-.34h.06a1.21,1.21,0,0,1,.28,2.4Z" transform="translate(-75.59 -61.94)"/><path class="cls-108" d="M700.12,413.27l-3.06-.29a1.11,1.11,0,0,1,.18-2.21h.08l2.92.23h.07a1.13,1.13,0,1,1-.17,2.26Z" transform="translate(-75.59 -61.94)"/><path class="cls-108" d="M690,411.46c-1-.35-1.95-.66-2.91-1a1,1,0,0,1,.76-1.92h0c.9.35,1.84.62,2.75.94l.09,0a1.06,1.06,0,0,1,.65,1.35,1,1,0,0,1-1.34.64Z" transform="translate(-75.59 -61.94)"/><path class="cls-108" d="M680.81,406.93,678.38,405a.95.95,0,0,1,1.15-1.5l.07.06,2.32,1.74.08.06a1,1,0,0,1-1.17,1.56Z" transform="translate(-75.59 -61.94)"/><path class="cls-108" d="M673.52,399.7l-1.65-2.63a.84.84,0,0,1,1.41-.91l.06.09,1.59,2.42.06.08a.88.88,0,0,1-.25,1.21.87.87,0,0,1-1.21-.25Z" transform="translate(-75.59 -61.94)"/><path class="cls-108" d="M669.35,390.31,669,388a.74.74,0,0,1,1.47-.24v.07l.38,2.14v.07a.77.77,0,0,1-1.51.27Z" transform="translate(-75.59 -61.94)"/><polygon class="cls-109" points="593.03 303.21 582.96 318.4 577 305.05 593.03 303.21"/><path class="cls-110" d="M606.09,311.15l17.18,63.18a4.62,4.62,0,0,0,5.83,3.19l62.77-19.64a1.83,1.83,0,0,0,1.29-1.61,1.81,1.81,0,0,0-1-1.8Z" transform="translate(-75.59 -61.94)"/><polygon class="cls-111" points="593.02 303.21 530.5 249.22 582.9 306.41 580.29 310.74 593.02 303.21"/><polygon class="cls-112" points="576.89 308.26 582.96 318.4 582.9 306.41 576.89 308.26"/><path class="cls-113" d="M718.54,450.38s6.63,3.22,7.85,6.93c1,3,8.3,3.35,9,9.2A6.7,6.7,0,0,0,741,472.4c7.49,1.15,19,5,20.88,18,1.4,9.92-3.65,13.68-9,15a7.51,7.51,0,0,0-5.7,8.68c.75,3.78-.38,8.14-6.92,11.59C725.67,533.44,711,507.38,711,507.38l-3-45.5Z" transform="translate(-75.59 -61.94)"/><path class="cls-114" d="M649.54,426.38s18.86,51.42,51,67.49c0,0-10.7,17.45-16.28,18.51,0,0-34.34-43.94-37.84-79.94Z" transform="translate(-75.59 -61.94)"/><path class="cls-115" d="M778.79,735.68l1,7.79a3.22,3.22,0,0,0,2.82,2.82,49.87,49.87,0,0,0,10.44.17,2.76,2.76,0,0,0,2.31-3.58c-.95-3-2.7-7.53-5.23-10.19h-8.65A2.66,2.66,0,0,0,778.79,735.68Z" transform="translate(-75.59 -61.94)"/><path class="cls-116" d="M711,644.33l-1.46,8.59s4.89,49.52,5.75,69.33a15.46,15.46,0,0,1-2.29,8.82l-8.5,13.81,21.6-12.75.43-2.64L723,724.63l4.63-55.48a17,17,0,0,0-1.94-9.41l-4.47-8.4Z" transform="translate(-75.59 -61.94)"/><path class="cls-117" d="M703.11,746.88H710a4.14,4.14,0,0,0,3.29-1.61c2.15-2.8,6.61-8.25,8.74-8.39,2.86-.19,2.5,10,2.5,10h1.6l2-12.66a7.49,7.49,0,0,0-3.94-7.84h0s-.65,4.85-4.2,7-14.46,9.82-14.46,9.82a9.82,9.82,0,0,0-2.81.08A1.82,1.82,0,0,0,703.11,746.88Z" transform="translate(-75.59 -61.94)"/><path class="cls-118" d="M740.63,648.41s28.64,54.33,33.2,66.74A120.07,120.07,0,0,1,780,738.88c.09,1.53,2,3,7.25,3,2.71,0,4-1.09,4.68-2.14a3,3,0,0,0,.12-3c-1.66-3.35-6.92-14.07-8.86-18.93-2.33-5.8-7.33-32.1-10.07-41.24s-5.85-19.07-17.79-28.2C755.37,648.41,747.17,640.38,740.63,648.41Z" transform="translate(-75.59 -61.94)"/><path class="cls-119" d="M722.54,559.38c-7.39-31.31,11.32-49,11.32-49-11.81-11.33-33.32-16.49-33.32-16.49s-20.54,15-18.1,26.76c1.43,6.89,14.43,41.25,14.43,41.25S708.9,567.57,722.54,559.38Z" transform="translate(-75.59 -61.94)"/><path class="cls-120" d="M738.92,574.88c-3-9.06-16.38-15.5-16.38-15.5-13.64,8.19-25.67,2.5-25.67,2.5s-2.7,10.31-.83,19.89,13.54,71.15,13.54,71.15c18.4,3.73,46.7-3.75,46.7-3.75C744.56,628.36,741.92,583.94,738.92,574.88Z" transform="translate(-75.59 -61.94)"/><path class="cls-121" d="M714,473.18l6,27c.57,2.38-1.59,2-4,1.54-3.93-.75-9-2.27-10.7-5.34a3,3,0,0,1-.31-1l-2.58-18.71a3.36,3.36,0,0,1,2-3.53l5-2.21A3.36,3.36,0,0,1,714,473.18Z" transform="translate(-75.59 -61.94)"/><path class="cls-122" d="M733.86,510.36s41.93,30,5.37,61.52a9.48,9.48,0,0,1-4.14,2.4c-1.38.41-5.48,3.51-7.56,5.13a1.42,1.42,0,0,1-2.08-.38h0a2,2,0,0,1-.11-1.86l5.19-11a4,4,0,0,1,5.2-.22h0a2,2,0,0,0,3-.68c2.82-5.76,8.16-22.69-13.68-41.82a2.37,2.37,0,0,1-.53-2.88C726.06,517.64,729.57,511.79,733.86,510.36Z" transform="translate(-75.59 -61.94)"/><path class="cls-123" d="M706.91,447.49s-7.11,3-11.95,13.28-1.23,15,3.31,15.68,11.33.55,18.5-6.09S716.16,443.93,706.91,447.49Z" transform="translate(-75.59 -61.94)"/><path class="cls-124" d="M712,464.87s5.37-15-8-15.21l-3.14,2.19S696,443.51,704,439.53s17.43-.69,20.85,10.13,4,18.06-1.69,23.23-8-.69-8-.69,3.1-4.84,1.84-7.43-4.17.54-4.17.54Z" transform="translate(-75.59 -61.94)"/><path class="cls-125" d="M713.44,466.55s2.72-7.75,6.34-4.66-2.94,7.15-5.51,8.47Z" transform="translate(-75.59 -61.94)"/><path class="cls-126" d="M647.73,435.74c-.29.91,3,2.31,5-1.43.07-1.8,1.16-9.48.09-10.94-5.71-7.78-16.77-17.53-16.77-17.53a2.62,2.62,0,0,0-.33,3.65l5.37,5.6c-1.13,2-2.5,3.74-3.14,6.19a7.56,7.56,0,0,0,.75,5.54c.94,1.69,2.23,3.9,3.45,5.63A7.41,7.41,0,0,0,647.73,435.74Z" transform="translate(-75.59 -61.94)"/><path class="cls-127" d="M645,431.91c-.41-2.25-1.64-8.4-2.49-9.79a3.12,3.12,0,0,1-.6-2.46,2.32,2.32,0,0,1,1.29-1.39l.29-.15,5.25,4.44,1.58,4.25-.94.35-1.49-4-4.52-3.84a1.11,1.11,0,0,0-.49.61,2.28,2.28,0,0,0,.48,1.67c1.13,1.83,2.56,9.8,2.62,10.14Z" transform="translate(-75.59 -61.94)"/><path class="cls-128" d="M849.17,716.1s35,50.58,71.7,36c29.52-11.69-10.06-12.86-42.23-24.49a2.1,2.1,0,0,1,1.26-4c25.47,6.87,64.64,14.92,73.3,2.31,13.07-19,2.14-13.74-29.81-15s-37-9.83-15.76-12,52.6,13,61.56,4,15.75-28.24,19.92-36.36-36.46-26.51-49.39-16.84S914.2,683.19,900,686s3.35-17.39,13.87-27.6,15.21-18.21-3.15-17.87-30.77,21-34.84,37.18-11.62,24.47-10.26,16.4,7.6-32.56,14.34-39.27S844.44,651.76,849.17,716.1Z" transform="translate(-75.59 -61.94)"/><path class="cls-129" d="M852.44,717a.54.54,0,0,0,.56,0c39.23-26.1,101.15-40.64,101.77-40.79a.54.54,0,0,0,.4-.65.55.55,0,0,0-.65-.41c-.62.15-62.73,14.73-102.12,40.94a.55.55,0,0,0-.15.76A.61.61,0,0,0,852.44,717Z" transform="translate(-75.59 -61.94)"/><path class="cls-130" d="M820.62,741.66s74.47,12.38,93-32.44c14.91-36-19.94-2.11-57.68,16.31a2.58,2.58,0,0,1-2.45-4.54c27.81-16.58,68.37-44.24,64.66-62.65-5.61-27.78-10.29-13.62-38.67,13.49s-40.28,24.22-24,3.68,56.35-35.31,56.1-50.87-11.44-38-15-48.62-54.53,9.49-57,29.15,7.65,51.05-2,65.91S825,653.27,825,635.28s-3.06-29-18.45-12.5-7.74,45.11,3,62.49,11.65,31.15,5.7,23.05-22.21-34.51-22.38-46.19S759.87,690.86,820.62,741.66Z" transform="translate(-75.59 -61.94)"/><path class="cls-129" d="M824.19,739.52a.66.66,0,0,0,.46-.52c10.5-56.87,50.57-123.88,51-124.55a.67.67,0,0,0-.23-.92.66.66,0,0,0-.91.23c-.41.67-40.61,67.89-51.15,125a.67.67,0,0,0,.53.78A.69.69,0,0,0,824.19,739.52Z" transform="translate(-75.59 -61.94)"/></svg>